<svg width="40" height="40" viewBox="0 0 40 40" fill="none" xmlns="http://www.w3.org/2000/svg">
<g clip-path="url(#clip0_1954_4672)">
<path d="M6.10333 33.13V40.0013H4.82519C4.82519 40.0013 4.82519 34.8083 4.82519 32.2111C4.83034 31.9948 4.77176 31.7815 4.65609 31.5952C3.70701 30.2458 2.73508 28.911 1.80428 27.6197V40.0013H0.533767C0.533767 40.0013 0.533767 29.3936 0.533767 24.0891C0.530199 23.852 0.500583 23.616 0.445407 23.3847C-0.119917 20.9039 -0.14739 18.3395 0.364667 15.8482C0.995807 12.5748 2.54185 9.52337 4.84043 7.01457C8.03957 3.5101 12.0416 1.36219 16.8616 0.612891C17.2364 0.554918 17.6233 0.565063 17.8701 0.178093C17.9402 0.0577984 18.2144 0.0128692 18.4002 0.0114199C19.4666 -0.00452269 20.5421 -0.00307336 21.6146 0.0114199C21.799 0.0114199 22.0793 0.0505518 22.1478 0.163599C22.387 0.553469 22.7739 0.556367 23.1517 0.612891C27.7798 1.32016 31.7011 3.31444 34.8195 6.62036C38.5396 10.5509 40.2565 15.1931 39.9686 20.4933C39.7766 23.9876 38.663 27.2052 36.5668 30.0589C32.8863 35.0663 27.821 37.9012 21.3815 38.3606C16.6118 38.6998 12.2701 37.491 8.37929 34.846C7.60388 34.317 6.88179 33.7184 6.10333 33.13ZM21.15 1.17668H18.8923V10.2538H21.15V1.17668ZM22.1371 11.2857C22.0351 11.3973 21.7807 11.4191 21.5948 11.422C20.5421 11.4336 19.4895 11.4307 18.4368 11.422C18.2845 11.422 18.0575 11.422 17.9798 11.3423C17.6416 10.9582 17.2866 11.1365 16.9256 11.2597C13.1049 12.5727 10.6294 16.1874 10.9432 19.9991C11.0892 21.9018 11.8904 23.7057 13.2228 25.1315C14.5551 26.5573 16.3443 27.5255 18.3134 27.8863C18.871 27.9863 19.4438 28.011 20.0105 28.0704C24.4923 28.0342 28.345 24.892 28.9986 20.7049C29.6521 16.5178 27.0181 12.422 22.8471 11.1785C22.585 11.1031 22.3687 11.0307 22.1371 11.2857ZM30.0588 21.5687C28.9315 26.1269 24.567 29.3299 19.8764 29.2081C14.7669 29.0748 10.6949 25.5848 9.86766 21.1122C9.40858 18.6463 9.9551 16.1066 11.3958 14.0107C12.8366 11.9148 15.0631 10.4204 17.6218 9.83207V6.38411C11.8527 7.11892 6.04391 12.293 6.082 19.4368C6.08454 22.8563 7.47572 26.1427 9.96496 28.6095C12.4542 31.0763 15.849 32.5326 19.4402 32.6744C23.0314 32.8162 26.5414 31.6325 29.2369 29.3704C31.9324 27.1084 33.6051 23.9429 33.9054 20.5354C34.5468 13.2757 29.061 7.36676 22.4022 6.35803V9.83641C25.5526 10.6451 27.9093 12.4032 29.3352 15.2178C30.3516 17.1886 30.6077 19.4365 30.0588 21.5687ZM19.9602 37.2577C30.1442 37.3157 38.1892 29.7328 38.7575 20.489C39.3897 10.2451 31.3476 2.62311 22.3855 1.70423C22.3855 2.78978 22.3748 3.87823 22.4037 4.95218C22.4037 5.04638 22.6597 5.18842 22.8151 5.21741C25.176 5.63658 27.3958 6.59112 29.2865 8.00012C32.5344 10.435 34.5041 13.5945 35.0175 17.5034C35.8127 23.5398 32.9107 29.1531 27.2878 32.0068C21.7639 34.8112 16.2812 34.4518 11.1306 31.0372C7.93141 28.9197 5.9647 25.9428 5.18014 22.3253C4.55158 19.4885 4.84104 16.537 6.01039 13.8598C7.17973 11.1826 9.17411 8.90521 11.7308 7.32763C13.3866 6.28573 15.2478 5.57516 17.2013 5.23915C17.5639 5.17538 17.6583 5.04204 17.6583 4.71014C17.637 3.713 17.6507 2.71442 17.6507 1.71148C9.11967 2.55499 1.21473 9.62046 1.2391 19.4179C1.26195 29.3009 9.50052 37.1997 19.9602 37.2577Z" fill="#B4BABF"/>
<path d="M5.91464 39.9992H0.741188V39.231L5.87656 39.247L5.91464 39.9992Z" fill="#B4BABF"/>
</g>
<defs>
<clipPath id="clip0_1954_4672">
<rect width="40" height="40" fill="white" transform="matrix(-1 0 0 1 40 0)"/>
</clipPath>
</defs>
</svg>
