<svg width="40" height="32" viewBox="0 0 40 32" fill="none" xmlns="http://www.w3.org/2000/svg">
<path fill-rule="evenodd" clip-rule="evenodd" d="M12.6542 30.8105C7.24138 28.4209 3.42882 22.6899 3.42882 16C3.42882 9.31006 7.24137 3.57908 12.6542 1.18948C6.09534 2.32846 1 8.4694 1 16C1 23.5306 6.09534 29.6715 12.6542 30.8105ZM18.6909 30.4163C18.5567 30.4581 18.4217 30.4978 18.286 30.5353C12.3289 28.8892 7.85764 23.0543 7.85764 16C7.85764 8.94566 12.3289 3.11075 18.286 1.46468C18.4217 1.5022 18.5568 1.54189 18.691 1.58373C13.7175 4.17021 10.2865 9.6536 10.2865 16C10.2865 22.3464 13.7175 27.8298 18.6909 30.4163ZM20.0004 29.9297C14.9202 27.7278 11.2865 22.3594 11.2865 16C11.2865 9.64059 14.9202 4.27219 20.0004 2.07026C25.0806 4.27219 28.7143 9.64059 28.7143 16C28.7143 22.3594 25.0806 27.7278 20.0004 29.9297ZM21.7148 30.5353C21.579 30.4978 21.444 30.4581 21.3098 30.4163C26.2832 27.8298 29.7143 22.3464 29.7143 16C29.7143 9.6536 26.2832 4.17021 21.3098 1.58373C21.444 1.54189 21.579 1.5022 21.7148 1.46468C27.6719 3.11074 32.1431 8.94565 32.1431 16C32.1431 23.0543 27.6719 28.8893 21.7148 30.5353ZM23.4292 31.8946C22.8667 31.9642 22.2946 32 21.7148 32C21.135 32 20.5629 31.9642 20.0004 31.8946C19.4379 31.9642 18.8658 32 18.286 32C17.7061 32 17.1341 31.9642 16.5716 31.8946C16.009 31.9642 15.437 32 14.8571 32C6.65177 32 0 24.8366 0 16C0 7.16344 6.65177 0 14.8571 0C15.437 0 16.009 0.0357705 16.5716 0.105374C17.1341 0.0357705 17.7061 0 18.286 0C18.8658 0 19.4379 0.0357705 20.0004 0.105374C20.5629 0.0357705 21.135 0 21.7148 0C22.2946 0 22.8667 0.0357705 23.4292 0.105374C23.9917 0.0357705 24.5638 0 25.1436 0C33.349 0 40.0007 7.16344 40.0007 16C40.0007 24.8366 33.349 32 25.1436 32C24.5638 32 23.9917 31.9642 23.4292 31.8946ZM27.3465 1.18949C33.9054 2.32845 39.0007 8.4694 39.0007 16C39.0007 23.5306 33.9054 29.6715 27.3465 30.8105C32.7594 28.4209 36.5719 22.6899 36.5719 16C36.5719 9.31006 32.7594 3.57908 27.3465 1.18949ZM4.42882 16C4.42882 23.5306 9.52416 29.6715 16.0831 30.8105C10.6702 28.4209 6.85764 22.6899 6.85764 16C6.85764 9.31006 10.6702 3.57909 16.0831 1.18949C9.52416 2.32846 4.42882 8.46941 4.42882 16ZM35.5719 16C35.5719 8.4694 30.4766 2.32845 23.9177 1.18949C29.3306 3.57908 33.1431 9.31006 33.1431 16C33.1431 22.6899 29.3306 28.4209 23.9177 30.8105C30.4766 29.6715 35.5719 23.5306 35.5719 16Z" fill="#B4BABF"/>
<path fill-rule="evenodd" clip-rule="evenodd" d="M12.6542 30.8105C7.24138 28.4209 3.42882 22.6899 3.42882 16C3.42882 9.31006 7.24137 3.57908 12.6542 1.18948C6.09534 2.32846 1 8.4694 1 16C1 23.5306 6.09534 29.6715 12.6542 30.8105ZM18.6909 30.4163C18.5567 30.4581 18.4217 30.4978 18.286 30.5353C12.3289 28.8892 7.85764 23.0543 7.85764 16C7.85764 8.94566 12.3289 3.11075 18.286 1.46468C18.4217 1.5022 18.5568 1.54189 18.691 1.58373C13.7175 4.17021 10.2865 9.6536 10.2865 16C10.2865 22.3464 13.7175 27.8298 18.6909 30.4163ZM20.0004 29.9297C14.9202 27.7278 11.2865 22.3594 11.2865 16C11.2865 9.64059 14.9202 4.27219 20.0004 2.07026C25.0806 4.27219 28.7143 9.64059 28.7143 16C28.7143 22.3594 25.0806 27.7278 20.0004 29.9297ZM21.7148 30.5353C21.579 30.4978 21.444 30.4581 21.3098 30.4163C26.2832 27.8298 29.7143 22.3464 29.7143 16C29.7143 9.6536 26.2832 4.17021 21.3098 1.58373C21.444 1.54189 21.579 1.5022 21.7148 1.46468C27.6719 3.11074 32.1431 8.94565 32.1431 16C32.1431 23.0543 27.6719 28.8893 21.7148 30.5353ZM23.4292 31.8946C22.8667 31.9642 22.2946 32 21.7148 32C21.135 32 20.5629 31.9642 20.0004 31.8946C19.4379 31.9642 18.8658 32 18.286 32C17.7061 32 17.1341 31.9642 16.5716 31.8946C16.009 31.9642 15.437 32 14.8571 32C6.65177 32 0 24.8366 0 16C0 7.16344 6.65177 0 14.8571 0C15.437 0 16.009 0.0357705 16.5716 0.105374C17.1341 0.0357705 17.7061 0 18.286 0C18.8658 0 19.4379 0.0357705 20.0004 0.105374C20.5629 0.0357705 21.135 0 21.7148 0C22.2946 0 22.8667 0.0357705 23.4292 0.105374C23.9917 0.0357705 24.5638 0 25.1436 0C33.349 0 40.0007 7.16344 40.0007 16C40.0007 24.8366 33.349 32 25.1436 32C24.5638 32 23.9917 31.9642 23.4292 31.8946ZM27.3465 1.18949C33.9054 2.32845 39.0007 8.4694 39.0007 16C39.0007 23.5306 33.9054 29.6715 27.3465 30.8105C32.7594 28.4209 36.5719 22.6899 36.5719 16C36.5719 9.31006 32.7594 3.57908 27.3465 1.18949ZM4.42882 16C4.42882 23.5306 9.52416 29.6715 16.0831 30.8105C10.6702 28.4209 6.85764 22.6899 6.85764 16C6.85764 9.31006 10.6702 3.57909 16.0831 1.18949C9.52416 2.32846 4.42882 8.46941 4.42882 16ZM35.5719 16C35.5719 8.4694 30.4766 2.32845 23.9177 1.18949C29.3306 3.57908 33.1431 9.31006 33.1431 16C33.1431 22.6899 29.3306 28.4209 23.9177 30.8105C30.4766 29.6715 35.5719 23.5306 35.5719 16Z" fill="#B4BABF"/>
</svg>
