<svg width="40" height="52" viewBox="0 0 40 52" fill="none" xmlns="http://www.w3.org/2000/svg">
<path d="M4.6574 15.0544L17.9069 14.9911M4.6574 15.0544C4.6574 15.0544 4.26843 15.2176 3.8673 15.4437C3.73693 15.507 3.85533 16.6371 3.85533 16.6371M4.6574 15.0544L4.65754 9.40385L5.45981 8.72572L7.07639 8.66243V1.20306L7.86663 0.814268L14.4974 0.750977L15.2877 1.26635M17.9069 14.9911L17.895 9.40385L17.1048 8.66243H15.2997M17.9069 14.9911L18.6271 15.3781C18.6521 15.3987 18.6726 15.4256 18.6868 15.4565C18.7011 15.4875 18.7089 15.5214 18.7095 15.5563M3.81126 15.6467L18.7095 15.5563M18.7095 15.5563L18.7094 16.7998M3.85533 16.6371L18.7094 16.7998M3.85533 16.6371C3.46623 17.0259 3.46629 17.9302 3.46629 17.9302M18.7094 16.7998C18.9638 17.1128 19.1238 17.5085 19.1666 17.9301H21.6938L21.7179 21.7728C21.7179 21.7728 23.5231 20.1903 23.7237 20.1903M3.46629 17.9302L19.1668 17.9372M3.46629 17.9302L0.658203 17.9301V39.8562H2.23066M0.658203 18.5089L21.6998 18.6649M21.9183 21.5459C21.9183 21.5459 16.503 27.6491 21.5052 36.3019M22.3196 21.2079V36.3527M23.7237 20.1903V38.1108M23.7237 20.1903L23.6433 20.1905M35.5448 20.0275V38.1108M35.5448 20.0275C35.5047 20.0185 24.3072 20.1726 23.6714 20.1906M35.5448 20.0275L35.545 22.7901L37.3622 22.6816V20.6472L38.5535 20.4845L39.3558 20.9366L39.3678 37.3743L38.9667 37.8264L38.7541 38.1157L37.3622 38.0524V35.0981M37.3621 20.7549V38.1601M38.6862 20.554V38.1603M2.16241 39.8551L20.4141 39.629M2.8523 43.3097L19.5095 43.0837M2.8523 43.3097C2.66376 44.1506 3.46625 44.1513 3.46625 44.1513H4.49115M2.8523 43.3097L2.06227 43.2472V39.8566M4.36884 44.1512L18.0075 43.9885M18.0075 43.9885L18.91 43.9883C19.7123 43.7622 19.5117 43.0841 19.5117 43.0841L20.314 43.0208V39.6302H21.5174L21.5053 36.3028H22.3076L23.6113 38.1112L35.5572 38.0479V35.1093H37.3623M18.0075 43.9885L18.0957 44.8924L18.6974 45.5713M4.16818 44.9436H18.0956M3.85533 45.7183L18.6974 45.5713M3.85533 45.7183V49.6393L5.30745 51.2216L16.8923 51.1583L18.6974 49.4133L18.6974 45.5713M3.85533 45.7183L4.25647 44.8924C4.27051 44.7093 4.28054 44.1917 4.42495 44.151C4.43922 44.1453 4.45479 44.1453 4.46907 44.151M3.85533 49.4051L18.6974 49.4122M15.2877 1.26635L15.2997 8.66243M15.2877 1.26635L7.06445 1.26713M15.2997 8.66243L7.17629 8.66273M14.7002 8.66322V1.26713M7.6781 8.66322V1.26713M7.6781 9.34113H8.28181V14.9696H7.6781V9.34113ZM14.1546 9.34113H14.7001V14.9696H14.1546V9.34113Z" stroke="#B4BABF" stroke-miterlimit="10"/>
</svg>
