<svg width="40" height="40" viewBox="0 0 40 40" fill="none" xmlns="http://www.w3.org/2000/svg">
<path d="M7.87639 26.0101C6.66079 26.0101 5.47247 25.6497 4.46165 24.9745C3.45082 24.2993 2.66288 23.3395 2.19741 22.2166C1.73194 21.0936 1.60984 19.8578 1.84656 18.6655C2.08327 17.4732 2.66816 16.3778 3.5273 15.5178C4.38644 14.6578 5.48125 14.0718 6.67335 13.8339C7.86545 13.5961 9.10132 13.7169 10.2247 14.1813C11.3482 14.6457 12.3087 15.4326 12.9849 16.4428C13.6611 17.453 14.0227 18.6409 14.0239 19.8565C14.0234 21.4873 13.3757 23.0513 12.2231 24.205C11.0705 25.3588 9.50721 26.008 7.87639 26.0101ZM7.87639 13.8892C6.6947 13.8892 5.53956 14.2397 4.5571 14.8963C3.57464 15.5529 2.80901 16.4862 2.35708 17.5781C1.90514 18.6699 1.7872 19.8713 2.01818 21.0302C2.24916 22.1891 2.81868 23.2534 3.65469 24.0886C4.49069 24.9238 5.55563 25.4922 6.71476 25.722C7.87389 25.9518 9.07514 25.8326 10.1665 25.3796C11.2579 24.9265 12.1904 24.16 12.8461 23.1768C13.5017 22.1937 13.851 21.0382 13.8498 19.8565C13.8477 18.2729 13.2177 16.7548 12.0979 15.635C10.9781 14.5153 9.45999 13.8852 7.87639 13.8831V13.8892Z" fill="#B4BABF"/>
<path d="M13.937 15.3602C12.7213 15.3602 11.5329 14.9998 10.522 14.3245C9.51117 13.6492 8.72322 12.6893 8.25781 11.5662C7.7924 10.4431 7.67042 9.20728 7.9073 8.01489C8.14418 6.8225 8.72927 5.72711 9.58861 4.86721C10.4479 4.0073 11.543 3.42149 12.7352 3.18383C13.9274 2.94616 15.1634 3.06733 16.2867 3.532C17.4101 3.99667 18.3705 4.78398 19.0465 5.7944C19.7225 6.80482 20.0837 7.99299 20.0845 9.20868C20.0834 10.8391 19.4355 12.4026 18.283 13.5559C17.1305 14.7092 15.5675 15.3581 13.937 15.3602ZM13.937 3.23929C12.7554 3.23929 11.6003 3.58973 10.6179 4.24628C9.63549 4.90283 8.86986 5.83599 8.41787 6.92773C7.96587 8.01947 7.84781 9.22073 8.07863 10.3796C8.30944 11.5384 8.87876 12.6028 9.71456 13.438C10.5504 14.2733 11.6151 14.8418 12.7741 15.0719C13.9331 15.3019 15.1343 15.183 16.2257 14.7303C17.3172 14.2776 18.2498 13.5113 18.9057 12.5284C19.5616 11.5456 19.9112 10.3903 19.9104 9.20868C19.9072 7.62578 19.2767 6.1087 18.1571 4.9898C17.0374 3.8709 15.5199 3.24143 13.937 3.23929Z" fill="#B4BABF"/>
<path d="M26.2384 15.3947C25.0224 15.3951 23.8335 15.0348 22.8223 14.3595C21.811 13.6841 21.0227 12.724 20.5572 11.6007C20.0917 10.4773 19.9697 9.24103 20.2069 8.04834C20.444 6.85565 21.0296 5.76008 21.8894 4.90021C22.7493 4.04035 23.8449 3.45481 25.0375 3.21767C26.2302 2.98053 27.4665 3.10244 28.5899 3.56799C29.7132 4.03353 30.6733 4.82179 31.3487 5.83305C32.024 6.84431 32.3843 8.03315 32.3839 9.24919C32.3817 10.8784 31.7336 12.4403 30.5815 13.5923C29.4295 14.7444 27.8676 15.3925 26.2384 15.3947ZM26.2384 3.27373C25.0565 3.27333 23.901 3.62344 22.9181 4.27979C21.9351 4.93614 21.1689 5.86924 20.7163 6.96108C20.2638 8.05291 20.1451 9.25444 20.3755 10.4137C20.6058 11.573 21.1748 12.6379 22.0104 13.4738C22.846 14.3096 23.9107 14.879 25.0699 15.1097C26.229 15.3404 27.4306 15.2222 28.5226 14.77C29.6146 14.3178 30.548 13.5519 31.2046 12.5692C31.8613 11.5865 32.2118 10.4311 32.2118 9.24919C32.2102 7.66524 31.5804 6.1466 30.4606 5.02639C29.3408 3.90618 27.8223 3.27587 26.2384 3.27373Z" fill="#B4BABF"/>
<path d="M32.285 26.0101C31.0691 26.0117 29.88 25.6527 28.8681 24.9785C27.8562 24.3042 27.067 23.345 26.6003 22.2222C26.1336 21.0994 26.0103 19.8634 26.2461 18.6705C26.4819 17.4776 27.0662 16.3815 27.925 15.5207C28.7838 14.6599 29.8786 14.0731 31.0709 13.8346C32.2633 13.596 33.4995 13.7164 34.6234 14.1805C35.7473 14.6447 36.7083 15.4317 37.3849 16.442C38.0615 17.4523 38.4233 18.6406 38.4245 19.8565C38.4239 21.486 37.7774 23.0487 36.6265 24.2022C35.4757 25.3557 33.9145 26.0059 32.285 26.0101ZM32.285 13.8892C31.103 13.8876 29.9471 14.2367 28.9635 14.8924C27.98 15.548 27.2131 16.4808 26.76 17.5725C26.3068 18.6642 26.1877 19.8658 26.4178 21.0252C26.6478 22.1847 27.2167 23.2498 28.0524 24.0858C28.8881 24.9217 29.953 25.491 31.1123 25.7214C32.2717 25.9519 33.4734 25.8332 34.5652 25.3804C35.6571 24.9276 36.5901 24.161 37.2461 23.1777C37.9021 22.1944 38.2516 21.0386 38.2504 19.8565C38.2482 18.2743 37.6193 16.7575 36.5013 15.6379C35.3833 14.5184 33.8672 13.8874 32.285 13.8831V13.8892Z" fill="#B4BABF"/>
<path d="M26.2119 36.7597C24.996 36.7597 23.8075 36.3991 22.7965 35.7236C21.7855 35.0481 20.9976 34.088 20.5323 32.9647C20.067 31.8414 19.9453 30.6053 20.1825 29.4128C20.4197 28.2203 21.0052 27.1249 21.8649 26.2652C22.7247 25.4054 23.8201 24.8199 25.0126 24.5827C26.2051 24.3455 27.4411 24.4673 28.5644 24.9326C29.6877 25.3979 30.6479 26.1858 31.3234 27.1968C31.9989 28.2077 32.3594 29.3963 32.3594 30.6121C32.3573 32.2419 31.7089 33.8043 30.5565 34.9567C29.404 36.1091 27.8416 36.7575 26.2119 36.7597ZM26.2119 24.6387C25.0304 24.6387 23.8755 24.989 22.8932 25.6454C21.9109 26.3018 21.1453 27.2347 20.6931 28.3262C20.241 29.4177 20.1227 30.6188 20.3532 31.7775C20.5837 32.9362 21.1526 34.0006 21.988 34.836C22.8234 35.6714 23.8878 36.2403 25.0465 36.4708C26.2053 36.7013 27.4063 36.583 28.4978 36.1309C29.5893 35.6788 30.5222 34.9131 31.1786 33.9308C31.835 32.9485 32.1853 31.7936 32.1853 30.6121C32.1832 29.0285 31.5531 27.5104 30.4334 26.3906C29.3136 25.2709 27.7955 24.6408 26.2119 24.6387Z" fill="#B4BABF"/>
<path d="M13.85 36.6369C12.6341 36.6369 11.4455 36.2763 10.4346 35.6008C9.42362 34.9254 8.63568 33.9652 8.17039 32.8419C7.7051 31.7186 7.58335 30.4826 7.82056 29.2901C8.05776 28.0976 8.64325 27.0022 9.503 26.1424C10.3627 25.2827 11.4581 24.6972 12.6506 24.46C13.8431 24.2228 15.0792 24.3445 16.2025 24.8098C17.3258 25.2751 18.2859 26.063 18.9614 27.074C19.6369 28.085 19.9975 29.2735 19.9975 30.4894C19.9959 32.1193 19.3477 33.682 18.1951 34.8345C17.0426 35.9871 15.4799 36.6353 13.85 36.6369ZM13.85 24.5159C12.668 24.5159 11.5127 24.8665 10.53 25.5231C9.54725 26.1798 8.78136 27.1132 8.32915 28.2052C7.87694 29.2971 7.75873 30.4987 7.98946 31.6579C8.22019 32.8171 8.78949 33.8818 9.62538 34.7174C10.4613 35.553 11.5262 36.122 12.6854 36.3523C13.8447 36.5826 15.0462 36.464 16.1381 36.0114C17.2299 35.5588 18.163 34.7926 18.8193 33.8097C19.4757 32.8268 19.8258 31.6713 19.8254 30.4894C19.8233 28.9054 19.193 27.387 18.0728 26.2672C16.9525 25.1473 15.4339 24.5176 13.85 24.5159Z" fill="#B4BABF"/>
<path d="M20.1778 26.0101C18.9621 26.0105 17.7736 25.6505 16.7625 24.9755C15.7514 24.3005 14.9631 23.3409 14.4974 22.218C14.0316 21.095 13.9092 19.8592 14.1457 18.6668C14.3822 17.4743 14.9669 16.3787 15.826 15.5185C16.685 14.6583 17.7798 14.0722 18.972 13.8341C20.1641 13.596 21.4001 13.7168 22.5236 14.1811C23.6472 14.6454 24.6078 15.4324 25.2842 16.4426C25.9605 17.4528 26.3221 18.6408 26.3233 19.8565C26.3233 21.4872 25.6761 23.0511 24.5238 24.2049C23.3715 25.3587 21.8084 26.008 20.1778 26.0101ZM20.1778 13.8892C18.9961 13.8892 17.841 14.2397 16.8585 14.8963C15.876 15.5529 15.1104 16.4862 14.6585 17.5781C14.2065 18.6699 14.0886 19.8713 14.3196 21.0302C14.5506 22.1891 15.1201 23.2535 15.9561 24.0886C16.7921 24.9238 17.857 25.4922 19.0162 25.722C20.1753 25.9518 21.3765 25.8326 22.4679 25.3796C23.5593 24.9265 24.4918 24.16 25.1475 23.1768C25.8031 22.1937 26.1524 21.0382 26.1512 19.8565C26.1491 18.2729 25.5191 16.7548 24.3993 15.635C23.2795 14.5153 21.7614 13.8852 20.1778 13.8831V13.8892Z" fill="#B4BABF"/>
<path d="M19.9994 38.8872C16.2631 38.8876 12.6107 37.7801 9.50393 35.7046C6.39719 33.6291 3.97571 30.6789 2.54573 27.2271C1.11574 23.7754 0.741489 19.9771 1.4703 16.3126C2.1991 12.6481 3.99823 9.28208 6.64016 6.64016C9.28208 3.99823 12.6481 2.1991 16.3126 1.4703C19.9771 0.741489 23.7754 1.11574 27.2271 2.54573C30.6789 3.97571 33.6291 6.39719 35.7046 9.50393C37.7801 12.6107 38.8876 16.2631 38.8872 19.9994C38.8814 25.0069 36.8895 29.8077 33.3486 33.3486C29.8077 36.8895 25.0069 38.8814 19.9994 38.8872ZM19.9994 1.31188C16.3032 1.31147 12.69 2.40714 9.6166 4.4603C6.54319 6.51346 4.14765 9.43191 2.73293 12.8466C1.31821 16.2612 0.947847 20.0187 1.66868 23.6439C2.38951 27.269 4.16916 30.599 6.78257 33.2127C9.39598 35.8264 12.7258 37.6064 16.3508 38.3276C19.9759 39.0489 23.7335 38.6789 27.1483 37.2645C30.5631 35.8502 33.4818 33.455 35.5353 30.3818C37.5888 27.3086 38.6848 23.6955 38.6848 19.9994C38.6795 15.0451 36.7092 10.2953 33.2062 6.79195C29.7032 3.28858 24.9536 1.31777 19.9994 1.31188Z" fill="#B4BABF"/>
<path d="M7.87639 26.0101C6.66079 26.0101 5.47247 25.6497 4.46165 24.9745C3.45082 24.2993 2.66288 23.3395 2.19741 22.2166C1.73194 21.0936 1.60984 19.8578 1.84656 18.6655C2.08327 17.4732 2.66816 16.3778 3.5273 15.5178C4.38644 14.6578 5.48125 14.0718 6.67335 13.8339C7.86545 13.5961 9.10132 13.7169 10.2247 14.1813C11.3482 14.6457 12.3087 15.4326 12.9849 16.4428C13.6611 17.453 14.0227 18.6409 14.0239 19.8565C14.0234 21.4873 13.3757 23.0513 12.2231 24.205C11.0705 25.3588 9.50721 26.008 7.87639 26.0101ZM7.87639 13.8892C6.6947 13.8892 5.53956 14.2397 4.5571 14.8963C3.57464 15.5529 2.80901 16.4862 2.35708 17.5781C1.90514 18.6699 1.7872 19.8713 2.01818 21.0302C2.24916 22.1891 2.81868 23.2534 3.65469 24.0886C4.49069 24.9238 5.55563 25.4922 6.71476 25.722C7.87389 25.9518 9.07514 25.8326 10.1665 25.3796C11.2579 24.9265 12.1904 24.16 12.8461 23.1768C13.5017 22.1937 13.851 21.0382 13.8498 19.8565C13.8477 18.2729 13.2177 16.7548 12.0979 15.635C10.9781 14.5153 9.45999 13.8852 7.87639 13.8831V13.8892Z" stroke="#B4BABF" stroke-width="0.75"/>
<path d="M13.937 15.3602C12.7213 15.3602 11.5329 14.9998 10.522 14.3245C9.51117 13.6492 8.72322 12.6893 8.25781 11.5662C7.7924 10.4431 7.67042 9.20728 7.9073 8.01489C8.14418 6.8225 8.72927 5.72711 9.58861 4.86721C10.4479 4.0073 11.543 3.42149 12.7352 3.18383C13.9274 2.94616 15.1634 3.06733 16.2867 3.532C17.4101 3.99667 18.3705 4.78398 19.0465 5.7944C19.7225 6.80482 20.0837 7.99299 20.0845 9.20868C20.0834 10.8391 19.4355 12.4026 18.283 13.5559C17.1305 14.7092 15.5675 15.3581 13.937 15.3602ZM13.937 3.23929C12.7554 3.23929 11.6003 3.58973 10.6179 4.24628C9.63549 4.90283 8.86986 5.83599 8.41787 6.92773C7.96587 8.01947 7.84781 9.22073 8.07863 10.3796C8.30944 11.5384 8.87876 12.6028 9.71456 13.438C10.5504 14.2733 11.6151 14.8418 12.7741 15.0719C13.9331 15.3019 15.1343 15.183 16.2257 14.7303C17.3172 14.2776 18.2498 13.5113 18.9057 12.5284C19.5616 11.5456 19.9112 10.3903 19.9104 9.20868C19.9072 7.62578 19.2767 6.1087 18.1571 4.9898C17.0374 3.8709 15.5199 3.24143 13.937 3.23929Z" stroke="#B4BABF" stroke-width="0.75"/>
<path d="M26.2384 15.3947C25.0224 15.3951 23.8335 15.0348 22.8223 14.3595C21.811 13.6841 21.0227 12.724 20.5572 11.6007C20.0917 10.4773 19.9697 9.24103 20.2069 8.04834C20.444 6.85565 21.0296 5.76008 21.8894 4.90021C22.7493 4.04035 23.8449 3.45481 25.0375 3.21767C26.2302 2.98053 27.4665 3.10244 28.5899 3.56799C29.7132 4.03353 30.6733 4.82179 31.3487 5.83305C32.024 6.84431 32.3843 8.03315 32.3839 9.24919C32.3817 10.8784 31.7336 12.4403 30.5815 13.5923C29.4295 14.7444 27.8676 15.3925 26.2384 15.3947ZM26.2384 3.27373C25.0565 3.27333 23.901 3.62344 22.9181 4.27979C21.9351 4.93614 21.1689 5.86924 20.7163 6.96108C20.2638 8.05291 20.1451 9.25444 20.3755 10.4137C20.6058 11.573 21.1748 12.6379 22.0104 13.4738C22.846 14.3096 23.9107 14.879 25.0699 15.1097C26.229 15.3404 27.4306 15.2222 28.5226 14.77C29.6146 14.3178 30.548 13.5519 31.2046 12.5692C31.8613 11.5865 32.2118 10.4311 32.2118 9.24919C32.2102 7.66524 31.5804 6.1466 30.4606 5.02639C29.3408 3.90618 27.8223 3.27587 26.2384 3.27373Z" stroke="#B4BABF" stroke-width="0.75"/>
<path d="M32.285 26.0101C31.0691 26.0117 29.88 25.6527 28.8681 24.9785C27.8562 24.3042 27.067 23.345 26.6003 22.2222C26.1336 21.0994 26.0103 19.8634 26.2461 18.6705C26.4819 17.4776 27.0662 16.3815 27.925 15.5207C28.7838 14.6599 29.8786 14.0731 31.0709 13.8346C32.2633 13.596 33.4995 13.7164 34.6234 14.1805C35.7473 14.6447 36.7083 15.4317 37.3849 16.442C38.0615 17.4523 38.4233 18.6406 38.4245 19.8565C38.4239 21.486 37.7774 23.0487 36.6265 24.2022C35.4757 25.3557 33.9145 26.0059 32.285 26.0101ZM32.285 13.8892C31.103 13.8876 29.9471 14.2367 28.9635 14.8924C27.98 15.548 27.2131 16.4808 26.76 17.5725C26.3068 18.6642 26.1877 19.8658 26.4178 21.0252C26.6478 22.1847 27.2167 23.2498 28.0524 24.0858C28.8881 24.9217 29.953 25.491 31.1123 25.7214C32.2717 25.9519 33.4734 25.8332 34.5652 25.3804C35.6571 24.9276 36.5901 24.161 37.2461 23.1777C37.9021 22.1944 38.2516 21.0386 38.2504 19.8565C38.2482 18.2743 37.6193 16.7575 36.5013 15.6379C35.3833 14.5184 33.8672 13.8874 32.285 13.8831V13.8892Z" stroke="#B4BABF" stroke-width="0.75"/>
<path d="M26.2119 36.7597C24.996 36.7597 23.8075 36.3991 22.7965 35.7236C21.7855 35.0481 20.9976 34.088 20.5323 32.9647C20.067 31.8414 19.9453 30.6053 20.1825 29.4128C20.4197 28.2203 21.0052 27.1249 21.8649 26.2652C22.7247 25.4054 23.8201 24.8199 25.0126 24.5827C26.2051 24.3455 27.4411 24.4673 28.5644 24.9326C29.6877 25.3979 30.6479 26.1858 31.3234 27.1968C31.9989 28.2077 32.3594 29.3963 32.3594 30.6121C32.3573 32.2419 31.7089 33.8043 30.5565 34.9567C29.404 36.1091 27.8416 36.7575 26.2119 36.7597ZM26.2119 24.6387C25.0304 24.6387 23.8755 24.989 22.8932 25.6454C21.9109 26.3018 21.1453 27.2347 20.6931 28.3262C20.241 29.4177 20.1227 30.6188 20.3532 31.7775C20.5837 32.9362 21.1526 34.0006 21.988 34.836C22.8234 35.6714 23.8878 36.2403 25.0465 36.4708C26.2053 36.7013 27.4063 36.583 28.4978 36.1309C29.5893 35.6788 30.5222 34.9131 31.1786 33.9308C31.835 32.9485 32.1853 31.7936 32.1853 30.6121C32.1832 29.0285 31.5531 27.5104 30.4334 26.3906C29.3136 25.2709 27.7955 24.6408 26.2119 24.6387Z" stroke="#B4BABF" stroke-width="0.75"/>
<path d="M13.85 36.6369C12.6341 36.6369 11.4455 36.2763 10.4346 35.6008C9.42362 34.9254 8.63568 33.9652 8.17039 32.8419C7.7051 31.7186 7.58335 30.4826 7.82056 29.2901C8.05776 28.0976 8.64325 27.0022 9.503 26.1424C10.3627 25.2827 11.4581 24.6972 12.6506 24.46C13.8431 24.2228 15.0792 24.3445 16.2025 24.8098C17.3258 25.2751 18.2859 26.063 18.9614 27.074C19.6369 28.085 19.9975 29.2735 19.9975 30.4894C19.9959 32.1193 19.3477 33.682 18.1951 34.8345C17.0426 35.9871 15.4799 36.6353 13.85 36.6369ZM13.85 24.5159C12.668 24.5159 11.5127 24.8665 10.53 25.5231C9.54725 26.1798 8.78136 27.1132 8.32915 28.2052C7.87694 29.2971 7.75873 30.4987 7.98946 31.6579C8.22019 32.8171 8.78949 33.8818 9.62538 34.7174C10.4613 35.553 11.5262 36.122 12.6854 36.3523C13.8447 36.5826 15.0462 36.464 16.1381 36.0114C17.2299 35.5588 18.163 34.7926 18.8193 33.8097C19.4757 32.8268 19.8258 31.6713 19.8254 30.4894C19.8233 28.9054 19.193 27.387 18.0728 26.2672C16.9525 25.1473 15.4339 24.5176 13.85 24.5159Z" stroke="#B4BABF" stroke-width="0.75"/>
<path d="M20.1778 26.0101C18.9621 26.0105 17.7736 25.6505 16.7625 24.9755C15.7514 24.3005 14.9631 23.3409 14.4974 22.218C14.0316 21.095 13.9092 19.8592 14.1457 18.6668C14.3822 17.4743 14.9669 16.3787 15.826 15.5185C16.685 14.6583 17.7798 14.0722 18.972 13.8341C20.1641 13.596 21.4001 13.7168 22.5236 14.1811C23.6472 14.6454 24.6078 15.4324 25.2842 16.4426C25.9605 17.4528 26.3221 18.6408 26.3233 19.8565C26.3233 21.4872 25.6761 23.0511 24.5238 24.2049C23.3715 25.3587 21.8084 26.008 20.1778 26.0101ZM20.1778 13.8892C18.9961 13.8892 17.841 14.2397 16.8585 14.8963C15.876 15.5529 15.1104 16.4862 14.6585 17.5781C14.2065 18.6699 14.0886 19.8713 14.3196 21.0302C14.5506 22.1891 15.1201 23.2535 15.9561 24.0886C16.7921 24.9238 17.857 25.4922 19.0162 25.722C20.1753 25.9518 21.3765 25.8326 22.4679 25.3796C23.5593 24.9265 24.4918 24.16 25.1475 23.1768C25.8031 22.1937 26.1524 21.0382 26.1512 19.8565C26.1491 18.2729 25.5191 16.7548 24.3993 15.635C23.2795 14.5153 21.7614 13.8852 20.1778 13.8831V13.8892Z" stroke="#B4BABF" stroke-width="0.75"/>
<path d="M19.9994 38.8872C16.2631 38.8876 12.6107 37.7801 9.50393 35.7046C6.39719 33.6291 3.97571 30.6789 2.54573 27.2271C1.11574 23.7754 0.741489 19.9771 1.4703 16.3126C2.1991 12.6481 3.99823 9.28208 6.64016 6.64016C9.28208 3.99823 12.6481 2.1991 16.3126 1.4703C19.9771 0.741489 23.7754 1.11574 27.2271 2.54573C30.6789 3.97571 33.6291 6.39719 35.7046 9.50393C37.7801 12.6107 38.8876 16.2631 38.8872 19.9994C38.8814 25.0069 36.8895 29.8077 33.3486 33.3486C29.8077 36.8895 25.0069 38.8814 19.9994 38.8872ZM19.9994 1.31188C16.3032 1.31147 12.69 2.40714 9.6166 4.4603C6.54319 6.51346 4.14765 9.43191 2.73293 12.8466C1.31821 16.2612 0.947847 20.0187 1.66868 23.6439C2.38951 27.269 4.16916 30.599 6.78257 33.2127C9.39598 35.8264 12.7258 37.6064 16.3508 38.3276C19.9759 39.0489 23.7335 38.6789 27.1483 37.2645C30.5631 35.8502 33.4818 33.455 35.5353 30.3818C37.5888 27.3086 38.6848 23.6955 38.6848 19.9994C38.6795 15.0451 36.7092 10.2953 33.2062 6.79195C29.7032 3.28858 24.9536 1.31777 19.9994 1.31188Z" stroke="#B4BABF" stroke-width="0.75"/>
</svg>
