<svg width="40" height="29" viewBox="0 0 40 29" fill="none" xmlns="http://www.w3.org/2000/svg">
<path d="M6.70924 24.5441V5.08672M2.4363 5.24262L2.53804 24.4674M7.52325 6.48264V23.6144M7.52325 23.6144L6.75595 24.5451H2.53807L0.808594 23.1048V6.87069L2.43633 5.16527L6.70915 5.01023L7.52302 6.56062H7.82822V5.01023L8.54036 4.23503V2.99472L11.4908 2.99435M7.52325 23.6144L7.92995 23.6149V24.9529L8.54036 25.7854L8.54045 26.746M8.54045 3.20649V26.746M8.54045 26.746L11.4134 26.7463M11.4134 26.7463L11.4908 2.99435M11.4134 26.7463L11.8976 28.111H18.2051L18.9172 25.9405L20.7484 25.9401M11.4908 2.99435C11.4908 2.99435 11.389 5.78505 12.1012 7.64552M11.4908 2.99435L12.1407 1.44434H18.3068L18.9172 3.76992L20.6467 4.07999L21.1452 4.54511H36.3137L36.9241 5.16527V7.80093H38.1449V4.85519L39.5183 4.89705V24.6226L39.2639 25.0102L38.1449 25.111L38.1451 21.9092M12.1012 7.64552H18.2052M12.1012 7.64552C10.6769 17.723 12.2029 21.1338 12.2029 21.1338M18.2052 7.64552C18.2052 7.64552 18.667 6.71528 18.9173 3.92459M18.2052 7.64552C19.6773 16.6192 18.3067 21.1338 18.3067 21.1338H12.1518M18.3067 21.1326C18.3067 21.1326 19.324 25.9388 18.205 28.1094M12.2029 21.1326C12.2029 21.1326 12.1154 21.452 12.0096 21.9853C11.7552 23.2722 11.3992 25.807 11.8977 28.1094M18.9172 3.69121V26.0168M20.6467 4.15711L20.7484 25.9401M20.7484 25.9401L21.2571 25.3203H36.4154L36.9241 24.7001V21.9436L38.1451 21.9092M21.18 4.62262L21.2573 25.3978M36.3139 4.62262V25.3978M36.9241 7.87815V21.9867M38.1451 7.87815V21.9092M38.9591 4.93262L38.9819 25.0349M18.5246 22.4321H11.9241M11.9757 8.68968L18.3575 8.73154" stroke="#B4BABF" stroke-miterlimit="10"/>
</svg>
