<svg width="40" height="40" viewBox="0 0 40 40" fill="none" xmlns="http://www.w3.org/2000/svg">
<path d="M40.0004 31.7344C39.8743 31.1667 39.7785 30.5885 39.616 30.0323C39.2869 28.8648 38.6454 27.8091 37.7608 26.9792C36.1462 25.4625 34.5629 23.926 32.9566 22.4094C32.8717 22.3433 32.8085 22.2534 32.7751 22.1511C32.7417 22.0488 32.7396 21.9389 32.7691 21.8354C33.3806 18.8146 32.5327 16.251 30.1785 14.2906C25.1045 10.0656 19.9733 5.91875 14.8962 1.70625C13.866 0.855208 12.7702 0.238542 11.4587 0H10.1327C9.85766 0.065625 9.57954 0.123958 9.30662 0.198958C8.47957 0.423248 7.71437 0.832723 7.06894 1.3964C6.4235 1.96007 5.91474 2.66317 5.58115 3.45249C5.24755 4.24181 5.09787 5.09668 5.14343 5.95238C5.18899 6.80809 5.4286 7.64223 5.84412 8.39167C5.89829 8.49583 5.94828 8.59167 5.99516 8.675C5.3337 8.79479 4.66912 8.84583 4.05037 9.04063C0.671202 10.1073 -0.879839 13.7771 0.672245 16.9708C0.885786 17.4104 1.14308 17.5427 1.49099 17.3875C1.83891 17.2323 1.93058 16.9281 1.72954 16.4771C0.409744 13.5281 2.00349 10.4833 5.15662 9.93958C5.74855 9.83119 6.35905 9.89184 6.91808 10.1146C7.07294 10.1754 7.21111 10.2721 7.3212 10.3969C11.2719 15.1226 15.2205 19.8514 19.167 24.5833C19.1993 24.6208 19.2233 24.6646 19.2889 24.7635C17.0795 24.5615 15.1327 25.1052 13.467 26.5125C11.8014 27.9198 10.9327 29.725 10.7493 31.9615C10.6337 31.776 10.5577 31.6615 10.4889 31.5448L3.74829 19.9667C3.67153 19.8163 3.5827 19.6724 3.48266 19.5365C3.29203 19.3031 3.04203 19.2708 2.78266 19.4115C2.52328 19.5521 2.38579 19.7844 2.49412 20.0917C2.54725 20.2243 2.61282 20.3516 2.68995 20.4719C5.57849 25.4375 8.4837 30.401 11.3545 35.3833C11.9795 36.4625 12.6389 37.4844 13.6254 38.2688C17.4368 41.2979 23.09 40 25.1952 35.6083C25.2389 35.5167 25.2889 35.4271 25.3629 35.2875C25.4441 35.4417 25.5087 35.5563 25.566 35.675C27.0243 38.6604 30.3754 40.3865 33.6181 39.824C36.9702 39.2438 39.5441 36.5563 39.9285 33.2406C39.9464 33.1273 39.9703 33.0149 40.0004 32.9042V31.7344ZM26.29 12.5938C23.79 12.3958 21.7066 13.0865 20.0077 14.7813C18.3087 16.476 17.6118 18.5802 17.7431 21.0031C17.6629 20.9656 17.6389 20.899 17.6035 20.8542C14.1504 16.6979 10.6754 12.5594 7.25245 8.37917C6.13995 7.025 5.99204 5.43125 6.70766 3.83125C7.43683 2.19896 8.75558 1.31979 10.5358 1.18125C11.8743 1.07708 12.9743 1.65417 13.9733 2.48125C16.6886 4.72014 19.4084 6.95417 22.1327 9.18333L26.29 12.5938ZM18.942 20.149C18.9437 18.8773 19.3223 17.6347 20.03 16.5781C20.7377 15.5216 21.7428 14.6986 22.9182 14.2131C24.0935 13.7276 25.3864 13.6015 26.6334 13.8507C27.8805 14.0999 29.0256 14.7132 29.9242 15.613C30.8227 16.5129 31.4343 17.6589 31.6817 18.9063C31.9291 20.1537 31.8011 21.4464 31.3139 22.6211C30.8267 23.7957 30.0022 24.7996 28.9447 25.5058C27.8871 26.2119 26.6439 26.5887 25.3722 26.5885C21.8837 26.5917 18.941 23.6458 18.942 20.149ZM11.9243 32.3365C11.9223 31.0652 12.297 29.8218 13.0013 28.7635C13.7055 27.7051 14.7076 26.8791 15.881 26.39C17.0544 25.9008 18.3464 25.7704 19.5939 26.0152C20.8414 26.26 21.9884 26.869 22.8899 27.7653C23.7914 28.6616 24.4071 29.805 24.6592 31.051C24.9112 32.297 24.7883 33.5898 24.306 34.7661C23.8237 35.9423 23.0036 36.9492 21.9493 37.6596C20.8951 38.3699 19.6539 38.7519 18.3827 38.7573C17.5363 38.7606 16.6977 38.5969 15.9147 38.2755C15.1318 37.9541 14.42 37.4814 13.82 36.8845C13.2201 36.2875 12.7438 35.578 12.4185 34.7967C12.0932 34.0154 11.9253 33.1776 11.9243 32.3313V32.3365ZM25.9587 32.3615C25.9462 28.8135 28.8035 25.9115 32.3275 25.8927C35.8514 25.874 38.8118 28.774 38.8212 32.2917C38.8306 35.8333 35.9629 38.7344 32.4389 38.75C31.5934 38.7563 30.755 38.5959 29.9716 38.2779C29.1881 37.9598 28.4751 37.4905 27.8732 36.8967C27.2713 36.3028 26.7925 35.5961 26.4639 34.817C26.1354 34.038 25.9637 33.2018 25.9587 32.3563V32.3615ZM32.3004 23.3479L33.5295 24.7646H31.4462L32.3004 23.3479ZM25.3681 29.3073C25.0611 28.7767 24.757 28.2517 24.4556 27.7323H26.2816L25.3681 29.3073Z" fill="#B4BABF"/>
<path d="M19.7201 19.7235C19.7201 23.1287 22.0461 25.6131 24.9888 25.7995C26.4306 25.892 27.8532 25.4302 28.9658 24.5085C30.0784 23.5869 30.7968 22.275 30.9742 20.8412C31.0832 19.962 30.9822 19.0696 30.6794 18.237C30.519 17.7829 30.2534 17.6224 29.9024 17.7454C29.5242 17.8777 29.419 18.162 29.5742 18.6329C30.3294 20.9006 29.3888 23.2162 27.2711 24.1974C25.5659 24.9849 23.9263 24.7766 22.4982 23.5724C21.0399 22.3495 20.544 20.7318 21.0784 18.9047C21.5992 17.1339 22.8336 16.0693 24.6659 15.737C25.7336 15.5443 26.7201 15.7829 27.6659 16.2943C27.8638 16.3985 28.1867 16.4485 28.3774 16.361C28.8201 16.1527 28.7784 15.611 28.3149 15.3422C26.4065 14.2318 24.4544 14.1714 22.5419 15.2745C20.6836 16.3474 19.7857 18.0308 19.7201 19.7235Z" fill="#B4BABF"/>
<path d="M12.7089 32.3106C12.7072 33.4288 13.0373 34.5224 13.6574 35.453C14.2774 36.3835 15.1596 37.1093 16.1922 37.5384C17.2249 37.9674 18.3616 38.0806 19.4585 37.8634C20.5555 37.6463 21.5634 37.1086 22.3547 36.3185C23.1459 35.5284 23.6851 34.5213 23.9038 33.4246C24.1226 32.328 24.0112 31.1911 23.5836 30.1579C23.1561 29.1246 22.4316 28.2414 21.502 27.62C20.5723 26.9985 19.4792 26.6668 18.361 26.6668C16.8634 26.6668 15.427 27.2612 14.3673 28.3193C13.3076 29.3775 12.7111 30.813 12.7089 32.3106ZM13.8776 32.3002C13.8824 31.4148 14.1494 30.5507 14.6449 29.817C15.1405 29.0834 15.8424 28.513 16.6619 28.178C17.4814 27.843 18.3819 27.7584 19.2495 27.9348C20.1171 28.1113 20.9129 28.5409 21.5365 29.1694C22.16 29.7979 22.5834 30.5971 22.753 31.4661C22.9226 32.3351 22.8308 33.2348 22.4894 34.0517C22.1479 34.8685 21.572 35.5659 20.8344 36.0556C20.0969 36.5454 19.2307 36.8055 18.3454 36.8033C17.756 36.8014 17.1728 36.6834 16.6291 36.456C16.0854 36.2286 15.5918 35.8964 15.1765 35.4782C14.7612 35.06 14.4324 34.5641 14.2088 34.0188C13.9852 33.4735 13.8713 32.8895 13.8735 32.3002H13.8776Z" fill="#B4BABF"/>
<path d="M26.7389 32.3494C26.7449 33.4675 27.0824 34.5587 27.7086 35.4849C28.3349 36.4112 29.2218 37.1309 30.2572 37.553C31.2925 37.9751 32.4298 38.0806 33.5251 37.8562C34.6205 37.6319 35.6247 37.0877 36.4107 36.2925C37.1967 35.4973 37.7292 34.4868 37.9408 33.389C38.1525 32.2911 38.0337 31.1551 37.5996 30.1247C37.1655 29.0943 36.4356 28.2158 35.5021 27.6004C34.5687 26.9849 33.4736 26.6602 32.3556 26.6671C30.8574 26.6762 29.4241 27.2799 28.3708 28.3455C27.3176 29.411 26.7306 30.8512 26.7389 32.3494ZM27.9077 32.3182C27.9089 31.4326 28.1726 30.5672 28.6656 29.8314C29.1585 29.0956 29.8585 28.5225 30.677 28.1844C31.4956 27.8464 32.396 27.7586 33.2645 27.9321C34.1329 28.1056 34.9305 28.5327 35.5563 29.1594C36.1821 29.7861 36.6081 30.5842 36.7804 31.4529C36.9527 32.3216 36.8636 33.2219 36.5244 34.04C36.1852 34.8581 35.6111 35.5573 34.8747 36.0492C34.1382 36.5411 33.2724 36.8036 32.3868 36.8036C31.1983 36.8019 30.059 36.3286 29.2192 35.4876C28.3794 34.6466 27.9077 33.5067 27.9077 32.3182Z" fill="#B4BABF"/>
</svg>
