<svg width="28" height="40" viewBox="0 0 28 40" fill="none" xmlns="http://www.w3.org/2000/svg">
<path d="M21.3586 3.15397L24.7172 3.17485L24.1654 1.11196L3.69677 1.02148L3.19579 3.15397H6.21401M21.3586 3.15397V5.07349M21.3586 3.15397H6.21401M21.3586 5.07349H24.8284V11.6839M21.3586 5.07349L6.11541 5.07311M24.8284 11.6839L26.9311 12.7502V20.2125L24.617 21.7061M24.8284 11.6839H2.75109M24.617 21.7061V36.6321L22.7517 38.9775H5.56205L3.69677 36.6474M24.617 21.7061H3.69677M3.69677 36.6474V21.7061M3.69677 36.6474L24.5135 36.647M3.69677 21.7061L1.06836 20.6398M1.06836 20.6398V13.1761M1.06836 20.6398C1.06836 20.6398 5.11598 22.3955 7.65654 19.9999C7.65654 19.9999 13.6957 23.4617 20.3141 19.9999C20.3141 19.9999 23.1347 22.7727 26.938 20.2129M1.06836 13.1761L2.75109 11.6839M1.06836 13.1761C1.06836 13.1761 3.99461 10.4895 7.65655 13.176C7.65655 13.176 14.1638 10.2055 20.4212 13.176C20.4212 13.176 23.066 10.7749 26.9393 12.75M2.75109 11.6839L2.74011 5.08323L6.21401 5.07349V3.15397M3.69755 22.7727H24.6178M7.65053 13.1759V19.9993M20.4121 13.1759V19.9993" stroke="#B4BABF" stroke-miterlimit="10"/>
</svg>
