<svg width="30" height="52" viewBox="0 0 30 52" fill="none" xmlns="http://www.w3.org/2000/svg">
<path d="M9.3191 8.87553V1.17076H13.2943V2.49158H15.0334V1.11133H19.5179V8.87553M9.3191 8.87553L4.35016 9.09566L0.375 11.3036M9.3191 8.87553H19.5179M19.5179 8.87553H24.4247L28.9464 11.297V15.6491M28.9464 15.6491L27.2073 16.8004H28.3998M28.9464 15.6491C24.4744 17.802 21.7415 15.6993 21.7415 15.6993C11.6098 18.3409 7.33152 15.6993 7.33152 15.6993M28.3998 16.8004L28.4495 41.0154H27.4557V43.657H23.9154L23.9775 50.041M28.3998 16.8004L0.375 16.85M23.9775 50.041L21.9899 51.3618L7.08556 51.5819L5.0955 50.041M23.9775 50.041H5.0955M5.0955 50.041V43.8265M5.0955 43.8265L1.36879 43.8772V41.2355H0.375M5.0955 43.8265L23.9176 43.6572M0.375 41.2355V16.8489L1.86568 16.8004L0.375 15.7988M0.375 41.2355L28.5738 41.0147M0.375 15.7988V11.3036M0.375 15.7988C0.375 15.7988 2.85947 18.1208 7.33152 15.6993M0.375 11.3036C0.375 11.3036 3.45078 9.32295 7.2545 11.3042C7.2545 11.3042 14.6582 8.88267 21.8011 11.3042C21.8011 11.3042 24.7228 9.32295 28.9464 11.3042M15.1577 1.8318H19.518M7.33152 15.6993L7.25453 11.3031M21.8011 11.3031L21.7415 15.8093M9.19475 1.83208L13.1997 1.80078" stroke="#B4BABF" stroke-miterlimit="10"/>
</svg>
