<svg width="40" height="39" viewBox="0 0 40 39" fill="none" xmlns="http://www.w3.org/2000/svg">
<path d="M38.3566 37.8529L39.364 35.7357V4.85944C39.3633 4.65313 39.3316 4.45104 39.2723 4.27479L38.2927 1.31445H26.5902L25.6281 3.87339C25.4556 3.95083 25.5768 9.60645 25.5431 9.89223M38.3566 37.8529H26.5902M38.3566 37.8529C39.7325 32.8027 38.172 28.8299 38.172 28.8299H26.5902C25.1117 33.3413 26.5902 37.8529 26.5902 37.8529M26.5902 37.8529C26.5902 37.8529 25.6661 35.0736 25.6661 35.4009V30.3833L25.1148 29.4976H16.1172M16.1172 29.4976L15.3161 27.5703M16.1172 29.4976L16.0556 9.89223M15.3161 27.5703H11.9278M15.3161 27.5703L15.193 12.2319M11.9278 27.5703L11.1889 29.3864M11.9278 27.5703V12.2319M11.1889 29.3864H9.21757M11.1889 29.3864L11.0658 10.0035M9.21757 29.3864L8.4165 26.7522H1.39384M9.21757 29.3864V10.0035M1.39384 26.7522L0.654297 25.7105V13.6794L1.39384 12.2319M1.39384 26.7522V12.2319M1.39384 12.2319L8.51905 12.1479L9.21757 10.0035M9.21757 10.0035H11.0658M11.0658 10.0035L11.9278 12.2319M11.9278 12.2319H15.193M15.193 12.2319L16.0556 9.89223M16.0556 9.89223H25.5431M25.5431 9.89223L25.6661 30.3884M8.51894 12.147L8.41639 26.7513M24.988 9.89184L25.1117 29.4973M25.5431 4.3742C25.5431 4.3742 25.7687 9.37318 26.5903 10.6734M26.5903 10.6734H38.2324C38.2324 10.6734 39.0962 9.50189 39.364 4.86068M26.5903 10.6734C26.5903 10.6734 24.7421 18.5081 26.5904 28.8311M38.2332 10.6731C38.2332 10.6731 40.4097 19.6959 38.1729 28.8311" stroke="#B4BABF" stroke-miterlimit="10"/>
</svg>
