<svg width="16" height="16" viewBox="0 0 16 16" fill="none" xmlns="http://www.w3.org/2000/svg">
<path d="M7.45618 0.239689L0.08764 8.45244C0.0314602 8.51548 -3.23643e-07 8.59591 -3.19937e-07 8.68069L-2.35843e-07 10.6045C-2.28812e-07 10.7654 0.206741 10.8393 0.314607 10.7176L7.14607 3.1048L7.14607 15.8261C7.14607 15.9217 7.22697 16 7.32584 16L8.67416 16C8.77303 16 8.85393 15.9217 8.85393 15.8261L8.85393 3.10698L15.6854 10.7198C15.7955 10.8415 16 10.7676 16 10.6067L16 8.61765C16 8.57635 15.9843 8.53505 15.9551 8.50461L8.54382 0.239688C8.47617 0.164433 8.39262 0.104094 8.2988 0.0627447C8.20499 0.0213953 8.10309 -3.54197e-07 8 -3.49691e-07C7.89691 -3.45185e-07 7.79501 0.0213953 7.7012 0.0627448C7.60738 0.104094 7.52383 0.164433 7.45618 0.239689Z" fill="#9C394E"/>
</svg>
