<svg width="20" height="20" viewBox="0 0 20 20" fill="none" xmlns="http://www.w3.org/2000/svg">
<path d="M17.7778 0H2.22222C1.63285 0 1.06762 0.234126 0.650874 0.650874C0.234126 1.06762 0 1.63285 0 2.22222V17.7778C0 18.3671 0.234126 18.9324 0.650874 19.3491C1.06762 19.7659 1.63285 20 2.22222 20H17.7778C18.3671 20 18.9324 19.7659 19.3491 19.3491C19.7659 18.9324 20 18.3671 20 17.7778V2.22222C20 1.63285 19.7659 1.06762 19.3491 0.650874C18.9324 0.234126 18.3671 0 17.7778 0ZM7.77778 15.5556L2.22222 10L3.78889 8.43333L7.77778 12.4111L16.2111 3.97778L17.7778 5.55556L7.77778 15.5556Z" fill="#222933"/>
</svg>
