<svg width="21" height="23" viewBox="0 0 21 23" fill="none" xmlns="http://www.w3.org/2000/svg">
<path d="M16.2382 22.1064C16.0338 22.1058 15.8301 22.0818 15.6304 22.0348C11.8298 21.1925 8.32834 19.2175 5.52915 16.3373C2.78968 13.4507 0.889716 9.77552 0.0591278 5.7563C-0.0388091 5.25539 -0.0147715 4.7359 0.128928 4.24782C0.272627 3.75974 0.531152 3.31949 0.879631 2.96943L3.31075 0.462543C3.43492 0.336734 3.58246 0.240393 3.74374 0.179806C3.90502 0.11922 4.07641 0.0957495 4.24673 0.110928C4.42333 0.130665 4.59375 0.191612 4.746 0.289482C4.89826 0.387352 5.02865 0.519768 5.12801 0.677418L8.16691 5.48933C8.28087 5.67604 8.33588 5.89701 8.32385 6.11972C8.31181 6.34243 8.23337 6.55513 8.10006 6.7265L6.57453 8.67991C7.1821 10.1205 8.04253 11.4226 9.10897 12.5151C10.1685 13.6473 11.4209 14.5514 12.7982 15.1783L14.6884 13.57C14.8471 13.4355 15.0403 13.3561 15.2423 13.3421C15.4442 13.3282 15.6453 13.3804 15.8189 13.4918L20.4076 16.6694C20.5651 16.7701 20.6992 16.9077 20.8 17.0719C20.9008 17.236 20.9656 17.4225 20.9896 17.6173C21.0135 17.8121 20.9961 18.0102 20.9384 18.1967C20.8808 18.3833 20.7845 18.5534 20.6568 18.6944L18.2864 21.2078C18.0172 21.4949 17.6976 21.722 17.3461 21.8762C16.9946 22.0305 16.6181 22.1087 16.2382 22.1064ZM4.14949 1.40018L1.71837 3.90707C1.52233 4.10277 1.37721 4.34976 1.29729 4.62376C1.21736 4.89777 1.20539 5.18934 1.26253 5.4698C2.03485 9.24129 3.81017 12.6924 6.37396 15.4062C9.0082 18.1159 12.3032 19.9735 15.8796 20.7651C16.1503 20.8257 16.4309 20.8134 16.6961 20.7293C16.9612 20.6452 17.2028 20.4919 17.3991 20.2832L19.7694 17.7698L15.3387 14.7029L13.3087 16.435C13.231 16.5009 13.1394 16.5454 13.042 16.5647C12.9445 16.584 12.8441 16.5775 12.7496 16.5457C11.064 15.8803 9.53652 14.8242 8.27631 13.4528C6.97284 12.1487 5.96105 10.5461 5.31642 8.76456C5.28915 8.65671 5.28825 8.54316 5.31379 8.43482C5.33934 8.32648 5.39048 8.22702 5.46229 8.14598L7.1033 6.0428L4.14949 1.40018Z" fill="#9C394E"/>
</svg>
