<svg width="20" height="20" viewBox="0 0 20 20" fill="none" xmlns="http://www.w3.org/2000/svg">
<path d="M10 0.25C4.624 0.25 0.25 4.624 0.25 10C0.25 15.376 4.624 19.75 10 19.75C15.376 19.75 19.75 15.376 19.75 10C19.75 4.624 15.376 0.25 10 0.25ZM10 1.75C14.5653 1.75 18.25 5.43475 18.25 10C18.25 14.5653 14.5653 18.25 10 18.25C5.43475 18.25 1.75 14.5653 1.75 10C1.75 5.43475 5.43475 1.75 10 1.75ZM9.9295 5.5C7.4365 5.5 5.4295 7.507 5.4295 10C5.4295 12.493 7.4365 14.5 9.9295 14.5C11.7295 14.5 13.267 13.42 13.984 11.8975L12.625 11.2653C12.1412 12.2935 11.1295 13 9.9295 13C8.2225 13 6.9295 11.707 6.9295 10C6.9295 8.293 8.2225 7 9.9295 7C11.1295 7 12.142 7.7065 12.625 8.73475L13.9847 8.10175C13.2677 6.57925 11.7295 5.49925 9.9295 5.49925V5.5Z" fill="#9C394E"/>
</svg>
