<svg width="36" height="34" viewBox="0 0 36 34" fill="none" xmlns="http://www.w3.org/2000/svg">
<path d="M27 25.5V29.75H9V25.5H6.75V29.75C6.75 30.3136 6.98705 30.8541 7.40901 31.2526C7.83097 31.6511 8.40326 31.875 9 31.875H27C27.5967 31.875 28.169 31.6511 28.591 31.2526C29.0129 30.8541 29.25 30.3136 29.25 29.75V25.5H27Z" fill="#9C394E"/>
<path d="M23.625 22.3125L22.0343 20.8101L19.125 23.5578V14.875H16.875V23.5578L13.9657 20.8101L12.375 22.3125L18 27.625L23.625 22.3125Z" fill="#9C394E"/>
<path d="M31.5 4.25V2.125H24.75V12.75H27V8.5H30.375V6.375H27V4.25H31.5Z" fill="#9C394E"/>
<path d="M19.125 12.75H14.625V2.125H19.125C20.0198 2.12584 20.8778 2.46194 21.5105 3.05953C22.1432 3.65712 22.4991 4.46738 22.5 5.3125V9.5625C22.4991 10.4076 22.1432 11.2179 21.5105 11.8155C20.8778 12.4131 20.0198 12.7492 19.125 12.75ZM16.875 10.625H19.125C19.4233 10.6247 19.7093 10.5127 19.9202 10.3135C20.1311 10.1143 20.2497 9.84421 20.25 9.5625V5.3125C20.2497 5.03079 20.1311 4.76071 19.9202 4.56151C19.7093 4.36231 19.4233 4.25028 19.125 4.25H16.875V10.625Z" fill="#9C394E"/>
<path d="M10.125 2.125H4.5V12.75H6.75V9.5625H10.125C10.7215 9.56166 11.2932 9.3375 11.715 8.93917C12.1368 8.54084 12.3741 8.00083 12.375 7.4375V4.25C12.3744 3.68659 12.1372 3.14641 11.7153 2.74802C11.2935 2.34963 10.7216 2.12556 10.125 2.125ZM6.75 7.4375V4.25H10.125L10.1261 7.4375H6.75Z" fill="#9C394E"/>
</svg>
