<svg width="27" height="25" viewBox="0 0 27 25" fill="none" xmlns="http://www.w3.org/2000/svg">
<path d="M11.0013 3.47692C12.5881 3.47565 14.1396 3.94495 15.4597 4.82549C16.7801 5.7062 17.8096 6.95872 18.4179 8.42462C19.0263 9.89052 19.1862 11.5039 18.8775 13.0607C18.5688 14.6175 17.8052 16.0478 16.6835 17.1706C15.5617 18.2934 14.1321 19.0582 12.5756 19.3684C11.0191 19.6785 9.40554 19.5201 7.93909 18.913C6.47264 18.306 5.21917 17.2777 4.33726 15.9581C3.45552 14.6388 2.9848 13.0877 2.98462 11.5009C2.99448 9.37714 3.84201 7.34303 5.3431 5.84057C6.84418 4.33811 8.87751 3.48872 11.0013 3.47692ZM11 1.1C8.94308 1.1 6.93234 1.70995 5.22207 2.85272C3.5118 3.99548 2.17881 5.61974 1.39166 7.52009C0.604506 9.42044 0.398551 11.5115 0.799837 13.5289C1.20112 15.5463 2.19163 17.3994 3.64609 18.8539C5.10056 20.3084 6.95366 21.2989 8.97106 21.7002C10.9885 22.1014 13.0796 21.8955 14.9799 21.1083C16.8803 20.3212 18.5045 18.9882 19.6473 17.2779C20.7901 15.5677 21.4 13.5569 21.4 11.5C21.4 8.74175 20.3043 6.09647 18.3539 4.14609C16.4035 2.19571 13.7583 1.1 11 1.1Z" fill="#9C394E" stroke="#9C394E" stroke-width="0.8"/>
<path d="M21.7784 19.9436L21.5017 19.6776L21.2234 19.9453L19.7242 21.3874L19.4238 21.6763L19.7224 21.9634L21.7216 23.8858L21.837 23.9968L21.9976 23.9968L24.9976 23.9968L25.9948 23.9968L25.2784 23.308L21.7784 19.9436Z" fill="#9C394E" stroke="#9C394E" stroke-width="0.8"/>
</svg>
