<svg width="16" height="13" viewBox="0 0 16 13" fill="none" xmlns="http://www.w3.org/2000/svg">
<path d="M15.0652 1.47307C15.0661 1.33997 15.0385 1.21005 14.951 1.11677L14.9504 1.11617C14.9113 1.07494 14.8639 1.04231 14.8108 1.02118C14.7596 1.00079 14.7047 0.991747 14.6496 0.994867H1.36179C1.2482 0.990252 1.13914 1.03245 1.05623 1.10957L1.05621 1.10955L1.05395 1.11174C1.01213 1.15231 0.980756 1.20218 0.961488 1.2567C0.943168 1.30854 0.936056 1.36378 0.9404 1.41846V2.8158V2.89135L1.0011 2.93632L7.9107 8.05572L8.0004 8.12218L8.08981 8.05534L15.005 2.88567L15.0652 2.84068V2.76553V1.47307ZM15.0652 1.47307C15.0652 1.47321 15.0652 1.47336 15.0652 1.4735L14.9152 1.47247H15.0652V1.47307ZM5.8237 7.53041L5.71616 7.45073L5.62478 7.54854L1.69678 11.7536L1.46102 12.006H1.8064H14.0664H14.4117L14.176 11.7536L10.2904 7.5919L10.1985 7.49347L10.0908 7.57426L7.99946 9.14258L5.8237 7.53041ZM15.062 4.15307V3.8533L14.8221 4.03301L10.9853 6.90688L10.8514 7.00716L10.9656 7.12937L14.8024 11.2339L15.062 11.5116V11.1315V4.15307ZM1.1781 4.08541L0.9388 3.9081V4.20593V10.9971V11.3775L1.19842 11.0995L4.94722 7.08599L5.06196 6.96315L4.9269 6.86308L1.1781 4.08541ZM14.6664 0.15C15.3085 0.15 15.85 0.717906 15.85 1.44473V11.5553C15.85 12.2813 15.3092 12.85 14.6664 12.85H1.3336C0.691465 12.85 0.15 12.2821 0.15 11.5553V1.44473C0.15 0.718651 0.690777 0.15 1.3336 0.15H14.6664Z" fill="#103A64" stroke="#103A64" stroke-width="0.3"/>
</svg>
