<svg width="18" height="20" viewBox="0 0 18 20" fill="none" xmlns="http://www.w3.org/2000/svg">
<path d="M13.372 19C13.2163 18.9995 13.061 18.9798 12.9089 18.9414C10.0132 18.2522 7.34541 16.6364 5.21268 14.2798C3.12547 11.9181 1.67788 8.91106 1.04505 5.62261C0.970431 5.21277 0.988746 4.78773 1.09823 4.3884C1.20772 3.98906 1.40469 3.62885 1.67019 3.34244L3.52248 1.29135C3.61708 1.18842 3.7295 1.10959 3.85238 1.06002C3.97525 1.01045 4.10584 0.991249 4.2356 1.00367C4.37016 1.01982 4.5 1.06968 4.616 1.14976C4.73201 1.22983 4.83135 1.33817 4.90706 1.46716L7.22241 5.40418C7.30924 5.55694 7.35115 5.73774 7.34198 5.91995C7.33281 6.10217 7.27304 6.27619 7.17147 6.41641L6.00916 8.01466C6.47207 9.19334 7.12764 10.2586 7.94017 11.1526C8.74744 12.0789 9.70161 12.8186 10.751 13.3315L12.1912 12.0156C12.3121 11.9056 12.4593 11.8406 12.6131 11.8292C12.767 11.8178 12.9202 11.8605 13.0525 11.9517L16.5486 14.5515C16.6686 14.6339 16.7708 14.7465 16.8476 14.8808C16.9244 15.0151 16.9738 15.1677 16.9921 15.3271C17.0103 15.4865 16.997 15.6485 16.9531 15.8011C16.9092 15.9538 16.8358 16.093 16.7385 16.2084L14.9325 18.2648C14.7274 18.4996 14.4839 18.6855 14.2161 18.8117C13.9483 18.9378 13.6614 19.0018 13.372 19ZM4.16151 2.05851L2.30923 4.1096C2.15987 4.26972 2.0493 4.47181 1.98841 4.69599C1.92752 4.92017 1.91839 5.15873 1.96193 5.3882C2.55036 8.47396 3.90299 11.2976 5.85635 13.518C7.86339 15.735 10.3739 17.2549 13.0988 17.9025C13.305 17.9521 13.5188 17.9421 13.7208 17.8732C13.9228 17.8044 14.1069 17.679 14.2564 17.5083L16.0624 15.4518L12.6866 12.9426L11.14 14.3597C11.0808 14.4136 11.011 14.4501 10.9367 14.4658C10.8625 14.4816 10.786 14.4763 10.714 14.4503C9.42973 13.9059 8.26592 13.0418 7.30576 11.9197C6.31264 10.8527 5.54175 9.54152 5.05061 8.08391C5.02983 7.99567 5.02914 7.90276 5.0486 7.81413C5.06807 7.72549 5.10703 7.6441 5.16175 7.5778L6.41204 5.85702L4.16151 2.05851Z" fill="#103A64" stroke="#103A64" stroke-width="0.2"/>
</svg>
