<svg width="14" height="14" viewBox="0 0 14 14" fill="none" xmlns="http://www.w3.org/2000/svg">
<path d="M13.7903 7.59213L6.60411 2.06573C6.54895 2.0236 6.47857 2 6.40439 2H4.72103C4.58027 2 4.5156 2.15506 4.62212 2.23596L11.2833 7.35955H0.152169C0.0684758 7.35955 0 7.42022 0 7.49438V8.50562C0 8.57978 0.0684758 8.64045 0.152169 8.64045H11.2814L4.62022 13.764C4.5137 13.8466 4.57837 14 4.71913 14H6.45955C6.49569 14 6.53183 13.9882 6.55846 13.9663L13.7903 8.40787C13.8561 8.35713 13.9089 8.29446 13.9451 8.2241C13.9813 8.15374 14 8.07732 14 8C14 7.92268 13.9813 7.84626 13.9451 7.7759C13.9089 7.70554 13.8561 7.64287 13.7903 7.59213Z" fill="#222933" fill-opacity="0.2"/>
</svg>
