<svg width="372" height="46" viewBox="0 0 372 46" fill="none" xmlns="http://www.w3.org/2000/svg">
<path d="M281.445 22.3163C282.573 23.1679 283.137 24.228 283.137 25.4981C283.137 26.7101 282.603 27.742 281.534 28.5931C280.361 29.531 278.766 30 276.747 30H265.281V14.4378H276.747C278.766 14.4378 280.361 14.9209 281.534 15.8877C282.603 16.7535 283.137 17.814 283.137 19.0696C283.137 20.3539 282.573 21.436 281.445 22.3163ZM277.192 27.2945C278.216 27.2945 279.033 27.1069 279.642 26.7317C280.176 26.4 280.443 25.9887 280.443 25.4981C280.443 25.0072 280.168 24.5963 279.619 24.2645C279.026 23.8747 278.216 23.6799 277.192 23.6799H269.689V20.9744H277.192C278.216 20.9744 279.026 20.7721 279.619 20.3684C280.168 20.0075 280.443 19.5673 280.443 19.048C280.443 18.5286 280.176 18.0881 279.642 17.7275C279.033 17.3382 278.216 17.1433 277.192 17.1433H268.064V27.2945H277.192Z" fill="#222933"/>
<path d="M318.249 25.6496H310.653L312.349 22.9441H316.587L313.8 18.4637L306.579 30H302.994L311.677 15.9312C311.96 15.4838 312.323 15.1158 312.768 14.8271C313.154 14.5677 313.496 14.4303 313.793 14.4158C314.119 14.3869 314.483 14.4955 314.883 14.7406C315.343 15.0293 315.729 15.4261 316.041 15.9312L324.546 30H320.958L318.249 25.6496Z" fill="#222933"/>
<path d="M298.873 30H302.992L293.441 22.3809L302.992 14.4373H298.873L290.925 21.0608C290.39 21.5079 290.123 21.9266 290.123 22.3163C290.123 22.6916 290.39 23.1025 290.925 23.5499L298.873 30Z" fill="#222933"/>
<path d="M288.81 30H286.027V14.4373H288.81V30Z" fill="#222933"/>
<path d="M252.967 30H252.01C249.309 30 247.275 29.4876 245.91 28.4634C244.396 27.3234 243.639 25.4977 243.639 22.9871V14.4373H246.422V22.9871C246.422 24.6325 246.941 25.7937 247.98 26.4718C248.841 27.0204 250.184 27.2945 252.01 27.2945H252.967C254.793 27.2945 256.136 27.0204 256.997 26.4718C258.036 25.7937 258.556 24.6325 258.556 22.9871V14.4373H261.339V22.9871C261.339 25.4977 260.574 27.3234 259.046 28.4634C257.695 29.4876 255.668 30 252.967 30Z" fill="#222933"/>
<path d="M240.745 30H236.63L232.155 25.6276H226.143V22.9221H233.624C234.93 22.9221 235.924 22.6119 236.607 21.9915C237.201 21.4287 237.476 20.7364 237.431 19.9137C237.327 18.0666 236.058 17.1433 233.624 17.1433H224.496V30H221.713V14.4373H233.201C235.62 14.4373 237.453 15.0074 238.7 16.1477C239.754 17.0998 240.303 18.3588 240.348 19.9172C240.392 21.1438 240.058 22.226 239.346 23.1639C238.555 24.2026 237.413 24.9207 235.91 25.3101L240.745 30Z" fill="#222933"/>
<path d="M212.03 17.1433V30H208.797V17.1433H201.451V14.4373H219.349V17.1433H212.03Z" fill="#222933"/>
<path d="M188.128 30C185.635 30 183.631 29.17 182.117 27.511C180.751 25.996 180.068 24.1777 180.068 22.0565C180.068 19.9641 180.722 18.2181 182.028 16.8184C183.512 15.2312 185.545 14.4373 188.128 14.4373H192.603C195.186 14.4373 197.212 15.2312 198.681 16.8184C200.002 18.2181 200.663 19.9641 200.663 22.0565C200.663 24.1777 199.98 25.996 198.615 27.511C197.101 29.17 195.097 30 192.603 30H188.128ZM188.128 17.1433C186.525 17.1433 185.227 17.6557 184.232 18.6797C183.356 19.5889 182.889 20.7144 182.829 22.0565C182.785 23.4707 183.201 24.6681 184.076 25.6496C185.055 26.7463 186.407 27.2945 188.128 27.2945H192.603C194.325 27.2945 195.675 26.7463 196.655 25.6496C197.531 24.6681 197.939 23.4707 197.88 22.0565C197.835 20.7144 197.367 19.5889 196.477 18.6797C195.498 17.6557 194.206 17.1433 192.603 17.1433H188.128Z" fill="#222933"/>
<path d="M164.795 28.9609L159.43 18.9177L157.114 29.8267H153.975L157.537 15.5414C157.775 14.5891 158.331 14.0767 159.207 14.0044C159.845 13.9468 160.446 14.4592 161.01 15.5414L166.376 25.7253L171.727 15.5232C172.291 14.4519 172.892 13.9468 173.53 14.0044C174.402 14.0767 174.959 14.5818 175.196 15.5194L178.755 29.8267H175.615L173.3 18.9177L167.934 28.9609C167.563 29.6536 167.059 30 166.42 30C165.708 30 165.167 29.6536 164.795 28.9609Z" fill="#222933"/>
<path d="M145.637 28.461C144.999 29.442 144.442 29.9546 143.967 29.9975C143.433 30.0405 142.832 29.5285 142.164 28.461L133.236 14.1754H136.832L143.975 25.7297L151.174 14.1754H154.765L145.637 28.461Z" fill="#222933"/>
<path d="M117.095 27.2945H131.398V30H113.49V14.4373H131.398V17.1433H117.095V27.2945ZM130.475 20.7579V23.4634H118.623V20.7579H130.475Z" fill="#222933"/>
<path d="M106.501 29.0694L94.1911 19.0394V29.8473H91.4082V15.6484C91.4082 15.2303 91.5192 14.8982 91.7419 14.6529C91.9645 14.4076 92.254 14.2849 92.6103 14.2849C93.1299 14.2849 93.6039 14.609 94.1911 15.0858L106.501 25.0863V14.2858H109.284V28.5066C109.284 29.5005 108.935 30 108.238 30C107.718 30 107.192 29.6321 106.501 29.0694Z" fill="#222933"/>
<path d="M73.1598 30H70.377V14.4373H81.865C83.8689 14.4373 85.4644 15.022 86.6518 16.1906C87.7202 17.2443 88.2548 18.5283 88.2548 20.0436C88.2548 21.5586 87.7202 22.8426 86.6518 23.8963C85.4644 25.0506 83.8614 25.6276 81.8428 25.6276H74.8072V22.9221H82.2881C83.3121 22.9221 84.1287 22.6192 84.7373 22.0129C85.2861 21.4648 85.5609 20.8013 85.5609 20.0222C85.5609 19.2429 85.2861 18.579 84.7373 18.0305C84.1434 17.4388 83.3271 17.1433 82.2881 17.1433H73.1598V30Z" fill="#222933"/>
<path fill-rule="evenodd" clip-rule="evenodd" d="M372 42H40.6443H40.5136V42.0028C39.1137 42.0543 38 42.9286 38 44.0001C38 45.0714 39.1137 45.9458 40.5136 45.9972V46H40.6443H372V42Z" fill="#9C394E"/>
<path d="M363.629 30H362.672C359.971 30 357.937 29.4732 356.572 28.4204C355.058 27.2482 354.301 25.3713 354.301 22.79V14H357.084V22.79C357.084 24.4816 357.603 25.6756 358.642 26.3727C359.503 26.9367 360.847 27.2185 362.672 27.2185H363.629C365.455 27.2185 366.798 26.9367 367.659 26.3727C368.698 25.6756 369.218 24.4816 369.218 22.79V14H372.001V22.79C372.001 25.3713 371.236 27.2482 369.708 28.4204C368.357 29.4732 366.331 30 363.629 30Z" fill="#222933"/>
<path d="M351.407 30H347.292L342.817 25.5049H336.805V22.7232H344.286C345.592 22.7232 346.587 22.4044 347.269 21.7665C347.863 21.1878 348.138 20.4761 348.093 19.6304C347.989 17.7312 346.72 16.782 344.286 16.782H335.158V30H332.375V14H343.863C346.283 14 348.115 14.5861 349.362 15.7584C350.416 16.7373 350.965 18.0316 351.01 19.6338C351.054 20.8951 350.72 22.0076 350.008 22.9718C349.217 24.0397 348.074 24.778 346.572 25.1784L351.407 30Z" fill="#222933"/>
<path fill-rule="evenodd" clip-rule="evenodd" d="M327.064 30H329.847V27.2185H327.064V30Z" fill="#222933"/>
<path d="M21.5017 0.0598984C20.8781 0.259041 20.2656 0.482319 19.6651 0.728809C16.6864 1.95166 14.008 3.74161 11.769 5.96063C9.52996 8.17949 7.72383 10.8341 6.48992 13.7859C5.7739 15.4996 5.25164 17.3127 4.94937 19.1966C4.68988 20.4247 4.55327 21.6966 4.55327 22.9989C4.55327 24.2981 4.6891 25.567 4.94703 26.7917C5.76672 31.9269 8.22267 36.5226 11.769 40.0372C14.008 42.2563 16.6864 44.0462 19.6654 45.2691C20.2656 45.5155 20.8781 45.7384 21.5012 45.9375C18.9764 45.7558 16.5648 45.1751 14.3315 44.2585C11.496 43.0944 8.9401 41.3846 6.79797 39.2617C2.59834 35.0999 0 29.3491 0 22.9989C0 19.8804 0.624839 16.9087 1.75617 14.2017C2.93075 11.3919 4.65584 8.85892 6.79797 6.73599C8.9401 4.61322 11.496 2.90342 14.331 1.73937C16.5643 0.822735 18.9764 0.241554 21.5017 0.0598984ZM45.1823 16.3461C45.5864 17.3137 45.9055 18.3259 46.1289 19.3747C46.318 20.555 46.4157 21.7659 46.4157 22.9989C46.4157 24.2274 46.3188 25.4328 46.132 26.6088C45.9082 27.6622 45.5886 28.6799 45.1823 29.6517C44.2936 31.7778 42.9897 33.6932 41.3713 35.2976C39.7524 36.9016 37.8196 38.1938 35.6744 39.0745C35.0951 39.3122 34.4993 39.5206 33.8904 39.6965C33.454 39.4842 32.8883 39.2069 32.5499 39.003C33.9603 38.1928 35.2539 37.2047 36.3993 36.07C38.117 34.3674 39.5027 32.3305 40.4484 30.0677C41.3593 27.8876 41.8625 25.4995 41.8625 22.9989C41.8625 20.4988 41.3588 18.1098 40.4484 15.9302C39.5018 13.6645 38.1161 11.6271 36.3993 9.92565C35.0636 8.60191 34.0528 7.53178 33.3182 6.6857C34.6083 6.24131 34.4064 6.29268 35.5129 5.95583C38.9601 8.4362 43.7195 12.845 45.1823 16.3461Z" fill="#9C394E"/>
<path d="M27.2548 0.0603638L27.2348 0.066555L27.1986 0.0783119L27.1711 0.0871353L27.1074 0.107712L27.0596 0.123497L27.0442 0.128754L26.9805 0.14949L26.9207 0.169605L26.9171 0.170998L26.8538 0.192043L26.7905 0.213394L26.7822 0.216488L26.7272 0.235367L26.6645 0.257336L26.644 0.264301L26.6011 0.279308L26.5383 0.30159L26.5065 0.31258L26.4754 0.323563L26.4126 0.34631L26.3692 0.361782L26.3497 0.369213L26.2872 0.391956L26.2324 0.412228L26.2249 0.414856L26.162 0.438065L26.1 0.461277L26.0957 0.462978L26.0377 0.484951L25.9753 0.508625L25.9598 0.514351L25.9133 0.532299L25.851 0.556435L25.824 0.566959L25.789 0.580574L25.7275 0.604713L25.6885 0.620033L25.6655 0.629314L25.6035 0.653763L25.5536 0.674034L25.542 0.678833L25.4805 0.703896L25.419 0.728809C22.4405 1.95166 19.7619 3.74161 17.5229 5.96063C15.284 8.17949 13.4777 10.8341 12.2438 13.7859C11.5283 15.4987 11.006 17.311 10.7037 19.1935L10.7033 19.1966L10.6953 19.2334L10.6913 19.254L10.6794 19.3119L10.6724 19.3444L10.6674 19.3694L10.656 19.4273L10.6502 19.4553L10.6449 19.4852L10.6338 19.5431L10.629 19.5664L10.6227 19.6009L10.6116 19.6593L10.6082 19.6778L10.601 19.7173L10.5807 19.8335L10.5706 19.8918L10.5687 19.9014L10.5603 19.9502L10.5585 19.9607L10.5412 20.0673L10.532 20.1256H10.5315L10.5226 20.1844L10.5144 20.2383L10.5139 20.2431L10.505 20.3014L10.4975 20.3511L10.4966 20.3602L10.4881 20.419L10.4816 20.4642L10.4797 20.4783L10.4717 20.5371L10.4661 20.5773L10.4638 20.5962L10.4563 20.655L10.4514 20.6906L10.4488 20.7142L10.4418 20.7733L10.4377 20.8041L10.4346 20.8326L10.4275 20.8919L10.4244 20.9182L10.4208 20.9511L10.4143 21.0107L10.4116 21.0322L10.408 21.07L10.4019 21.1295L10.4001 21.1462L10.3957 21.1893L10.3899 21.2484L10.3887 21.2607L10.3846 21.3081L10.3793 21.3681L10.3784 21.3752L10.374 21.4279L10.3692 21.4874L10.3687 21.4901L10.3643 21.5476L10.3593 21.605V21.6072L10.3549 21.6674L10.3514 21.72L10.351 21.7274L10.347 21.7875L10.3434 21.8357L10.3431 21.8476L10.3395 21.9077L10.3368 21.9512L10.3359 21.9677L10.3325 22.0282L10.3306 22.0669L10.3298 22.0884L10.3267 22.1489L10.3248 22.1826L10.324 22.2094L10.3214 22.2694L10.3204 22.2988L10.319 22.3301L10.3173 22.3906L10.3164 22.4152L10.3151 22.4516L10.3134 22.5121L10.3129 22.5314L10.312 22.5726L10.3108 22.6335L10.3103 22.6481L10.3098 22.694L10.3089 22.755L10.3084 22.7647L10.3081 22.816L10.3076 22.8769V22.8819L10.3072 22.9379V22.9989V23.06L10.3076 23.116V23.1205L10.3081 23.1814L10.3084 23.2331L10.3089 23.2424L10.3098 23.3029L10.3103 23.3498L10.3108 23.3634L10.312 23.4239L10.3129 23.4665L10.3134 23.4844L10.3151 23.5451L10.3164 23.5831L10.3169 23.6056L10.319 23.6661L10.3204 23.6993L10.3214 23.7266L10.324 23.7868L10.3253 23.8152L10.3267 23.8473L10.3293 23.9073L10.3306 23.9314L10.3325 23.9673L10.3354 24.0275L10.3368 24.0472L10.339 24.0876L10.3426 24.1476L10.3434 24.1626L10.3465 24.2078L10.3506 24.2674L10.3514 24.2779L10.3549 24.3275L10.3593 24.3871L10.3638 24.4468L10.3687 24.5069V24.5083L10.3735 24.5666L10.3784 24.6231L10.3788 24.6262L10.3841 24.6854L10.389 24.7376L10.3895 24.745L10.3952 24.8047L10.4001 24.8521L10.4015 24.8638L10.4073 24.9231L10.4121 24.9661L10.4138 24.9824L10.4201 25.0415L10.4244 25.0802L10.4266 25.1007L10.4338 25.16L10.4377 25.1942L10.4408 25.2191L10.4478 25.2779L10.4519 25.3078L10.4555 25.3372L10.463 25.396L10.4664 25.4209L10.471 25.4548L10.4789 25.5136L10.4816 25.5341L10.4869 25.5722L10.4953 25.631L10.498 25.6473L10.5041 25.6898L10.5125 25.7481L10.5144 25.7601L10.5214 25.8065L10.5306 25.8653L10.532 25.8722L10.54 25.9236L10.5492 25.9819L10.5496 25.9846L10.559 26.0398L10.5687 26.0969V26.0981L10.5788 26.1565L10.5882 26.2086L10.5891 26.2144L10.5998 26.2722L10.6082 26.3205L10.6099 26.3302L10.621 26.3881L10.629 26.4319L10.6316 26.446L10.6427 26.5039L10.6507 26.5428L10.6541 26.5613L10.6657 26.6193L10.6727 26.6539L10.6772 26.6767L10.6891 26.7341L10.6953 26.7644L10.7011 26.7917C11.5208 31.9269 13.9766 36.5226 17.5229 40.0372C19.7619 42.2563 22.4405 44.0462 25.4195 45.2691L25.481 45.294L25.5425 45.319L25.5539 45.3238L25.604 45.3441L25.666 45.3685L25.6889 45.3778L25.7275 45.3932L25.7895 45.4173L25.8243 45.4309L25.8513 45.4414L25.9133 45.4656L25.9603 45.4835L25.9758 45.4892L26.0377 45.5129L26.0961 45.5352L26.1 45.5366L26.1625 45.5598L26.2249 45.583L26.2329 45.5861L26.2872 45.6059L26.3502 45.6287L26.3697 45.6361L26.4131 45.6516L26.4754 45.6743L26.5068 45.6853L26.5383 45.6963L26.6015 45.7186L26.6445 45.734L26.6645 45.7405L26.7272 45.7625L26.7825 45.7817L26.7905 45.7843L26.8538 45.8058L26.9171 45.8269L26.9211 45.8283L26.9805 45.8484L27.0442 45.8691L27.0601 45.8747L27.1074 45.8902L27.1711 45.9107L27.1991 45.9199L27.2348 45.9313L27.2548 45.9375L27.2083 45.9344L27.1366 45.9287L27.064 45.923L27.0184 45.9196L26.9193 45.9112L26.9002 45.9093L26.7825 45.8988L26.7755 45.8985L26.6652 45.8875L26.6317 45.8844L26.5475 45.8761L26.4882 45.8699L26.4303 45.8638L26.3449 45.8546L26.3135 45.8507L26.2018 45.8383L26.1965 45.8374L26.0797 45.8235L26.059 45.8213L25.9634 45.8089L25.9164 45.8029L25.847 45.7936L25.7743 45.784L25.7309 45.7778L25.6327 45.7642L25.6151 45.7616L25.4991 45.7449L25.4907 45.7436L25.3836 45.7274L25.268 45.7094L25.2084 45.7001L25.1529 45.691L25.0675 45.6769L25.0379 45.6717L24.9273 45.6533L24.9228 45.6523L24.8082 45.6322L24.787 45.6282L24.6941 45.6112L24.6471 45.6028L24.5798 45.5901L24.5073 45.5765L24.4657 45.5682L24.3682 45.5493L24.352 45.5457L24.2382 45.523L24.2293 45.5213L24.1248 45.4993L24.0903 45.4923L24.0116 45.4752L23.9518 45.4625L23.8987 45.4506L23.8138 45.4317L23.7859 45.4256L23.6761 45.4006L23.673 45.3998L23.5606 45.3738L23.5389 45.3685L23.4486 45.347L23.4018 45.3357L23.3367 45.3195L23.265 45.3019L23.2252 45.2918L23.1282 45.2672L23.1136 45.2633L23.0021 45.2344L22.9924 45.2318L22.8909 45.205L22.8564 45.1957L22.7804 45.1751L22.721 45.1589L22.6697 45.145L22.5857 45.1213L22.559 45.1137L22.4511 45.0826L22.4489 45.0821L22.3391 45.0501L22.3165 45.0436L22.2294 45.0178L22.1824 45.0032L22.1199 44.9843L22.0487 44.9624L22.0106 44.9506L21.9151 44.9208L21.9013 44.9169L21.793 44.8822L21.7819 44.8787L21.684 44.8466L21.6495 44.8352L21.5761 44.811L21.5173 44.7914L21.3849 44.7467L21.36 44.7383L21.2534 44.7015L21.2526 44.701L21.145 44.6633L21.1219 44.6549L21.0379 44.6252L20.9909 44.608L20.9313 44.5865L20.8609 44.5602L20.8245 44.5471L20.7304 44.5119L20.7183 44.5072L20.6122 44.4672L20.6006 44.4629L20.5063 44.4264L20.4713 44.4129L20.4006 44.3852L20.3422 44.362L20.2952 44.3436L20.2139 44.3106L20.1903 44.301L20.0855 44.2585C17.2499 43.0944 14.694 41.3846 12.5519 39.2617C8.35225 35.0999 5.75391 29.3491 5.75391 22.9989C5.75391 19.8804 6.3789 16.9087 7.51007 14.2017C8.68465 11.3919 10.4099 8.85892 12.5519 6.73599C14.694 4.61322 17.2499 2.90342 20.0851 1.73937L20.19 1.69682L20.2134 1.68722L20.2948 1.65427L20.3418 1.63585L20.4001 1.61264L20.471 1.58495L20.506 1.57148L20.6001 1.53497L20.6117 1.53063L20.7179 1.49071L20.7299 1.48592L20.8242 1.45079L20.8604 1.43764L20.9308 1.41133L20.9905 1.38983L21.0375 1.37265L21.1216 1.34294L21.1446 1.33459L21.2522 1.29683L21.2529 1.29637L21.3597 1.25954L21.3844 1.25119L21.5168 1.20647L21.5757 1.18682L21.649 1.16268L21.6837 1.15123L21.7814 1.1192L21.7925 1.11564L21.9009 1.08098L21.9146 1.07711L22.0102 1.04725L22.0483 1.03549L22.1196 1.01352L22.1819 0.99464L22.2289 0.980095L22.316 0.954254L22.3387 0.947758L22.4484 0.915726L22.4506 0.915264L22.5587 0.884163L22.5852 0.876579L22.6692 0.853367L22.7206 0.838978L22.7799 0.822731L22.8559 0.802151L22.8906 0.79287L22.9919 0.766098L23.0016 0.76347L23.1131 0.734535L23.1278 0.730667L23.2247 0.706062L23.2645 0.696007L23.3362 0.678364L23.4013 0.662117L23.4481 0.650826L23.5385 0.629314L23.5601 0.624519L23.6725 0.598061L23.6756 0.597286L23.7854 0.57222L23.8138 0.566185L23.8983 0.547306L23.9518 0.535393L24.0112 0.522705L24.0898 0.505527L24.1245 0.498566L24.229 0.476593L24.2377 0.474892L24.3515 0.452145L24.3679 0.449055L24.4652 0.42971L24.5073 0.421356L24.5795 0.407738L24.6466 0.39505L24.6936 0.386696L24.7865 0.369675L24.8082 0.365654L24.9228 0.345535L24.9269 0.344608L25.0374 0.326195L25.0671 0.320934L25.1525 0.306854L25.2084 0.297722L25.2675 0.288441L25.3831 0.270493L25.4907 0.254246L25.4986 0.253006L25.6146 0.236294L25.6323 0.233665L25.7306 0.220047L25.7739 0.21386L25.847 0.204266L25.9164 0.194981L25.963 0.188946L26.059 0.176571L26.0797 0.174404L26.1962 0.160324L26.2015 0.159546L26.3135 0.147167L26.4267 0.13448L26.4303 0.134018L26.4879 0.127983L26.5475 0.121792L26.6312 0.113438L26.6648 0.110344L26.775 0.0993576L26.7825 0.0990486L26.9002 0.0885277L26.9193 0.0866699L27.0184 0.0783119L27.0635 0.0749092L27.1366 0.0691833L27.2083 0.0634575L27.2548 0.0603638ZM50.9362 16.3461C51.3398 17.3123 51.6585 18.3233 51.8821 19.3707L51.883 19.3747L51.8917 19.4299L51.9002 19.4852L51.9024 19.4966L51.9091 19.5409L51.9175 19.5961L51.9255 19.6518L51.9339 19.7075L51.9418 19.7628L51.9445 19.7826L51.9493 19.8185L51.9573 19.8742L51.9648 19.9299L51.9723 19.9861L51.9795 20.0418L51.9834 20.0699L51.987 20.0975L51.9935 20.1536L52.0007 20.2093L52.0073 20.2655L52.014 20.3217L52.0184 20.358L52.0205 20.3778L52.0268 20.4339L52.0497 20.6475L52.0511 20.6585L52.0675 20.8278L52.0728 20.8844L52.0777 20.9378L52.0782 20.9404L52.083 20.9971L52.0972 21.1673L52.1016 21.2239L52.102 21.2296L52.1059 21.2804L52.11 21.337L52.1139 21.3941L52.118 21.4511L52.1219 21.5077L52.1228 21.5221L52.1255 21.5646L52.132 21.6787L52.1351 21.7358L52.1383 21.7927L52.1397 21.8156L52.1414 21.8498L52.144 21.9068L52.1467 21.9643L52.1515 22.0784L52.1529 22.1099L52.1537 22.1358L52.1556 22.1932L52.1595 22.3077L52.1609 22.3651L52.1621 22.4055L52.1626 22.4226L52.164 22.48L52.1662 22.595L52.167 22.6529L52.1679 22.7016V22.7103L52.1684 22.7681L52.1693 22.8836L52.1696 22.941V22.9989V23.0564L52.1693 23.1138V23.1449V23.1717L52.1684 23.2293L52.1679 23.2867V23.291L52.167 23.3438L52.1662 23.4012L52.1657 23.4366L52.1653 23.4586L52.164 23.5157L52.1626 23.5731V23.5819L52.1614 23.6302L52.1595 23.6876L52.1582 23.727L52.1578 23.7445L52.1561 23.8016L52.1537 23.859L52.1534 23.8722L52.1515 23.9161L52.1493 23.9731L52.1476 24.017L52.1467 24.0297L52.1445 24.0866L52.1414 24.1437L52.1405 24.1612L52.1387 24.2007L52.1356 24.2573L52.133 24.3056L52.1325 24.3144L52.1291 24.3709L52.1259 24.4275L52.1245 24.4495L52.1223 24.4844L52.1184 24.5411L52.1148 24.5932V24.5977L52.1108 24.6542L52.1064 24.7108L52.1047 24.7367L52.1025 24.767L52.098 24.8236L52.0936 24.8801H52.0931L52.0888 24.9363L52.0838 24.9929L52.0811 25.0231L52.0789 25.0491L52.0741 25.1051L52.0688 25.1612L52.0683 25.166L52.0635 25.2174L52.0577 25.2736L52.0543 25.3082L52.0524 25.3297L52.0466 25.3859L52.0405 25.4419L52.0396 25.4507L52.0347 25.4976L52.0285 25.5538L52.0241 25.5929L52.0223 25.6095L52.0157 25.6657L52.009 25.7214L52.0077 25.7345L52.0024 25.7771L51.9957 25.8328L51.9904 25.8758L51.9887 25.8885L51.9817 25.9442L51.9745 25.9999L51.9718 26.0171L51.967 26.0551L51.9595 26.1108L51.9528 26.1579L51.952 26.1665L51.944 26.2218L51.9361 26.2772L51.933 26.2987L51.9281 26.3324L51.9201 26.3881L51.9122 26.439L51.9117 26.4434L51.9033 26.4981L51.8949 26.5534L51.8909 26.5794L51.886 26.6088C51.6621 27.6622 51.3425 28.6799 50.9362 29.6517C50.0475 31.7778 48.7436 33.6932 47.1252 35.2976C45.5063 36.9016 43.5735 38.1938 41.4284 39.0745C39.542 39.8486 37.4862 40.3062 35.3296 40.3794L35.3412 40.375L35.3535 40.3705L35.365 40.3667L35.3655 40.3662L35.3774 40.3619L35.3899 40.3574L35.4017 40.353L35.4138 40.3487L35.4256 40.3442L35.4381 40.3399L35.45 40.3356L35.462 40.3311L35.4704 40.3281L35.4739 40.3267L35.4859 40.3224L35.4982 40.3179L35.5102 40.3136L35.5221 40.3088L35.5341 40.3043L35.546 40.3L35.558 40.2956L35.5704 40.2908L35.5752 40.289L35.5824 40.2864L35.5942 40.282L35.6063 40.2777L35.6181 40.2727L35.6302 40.2684L35.642 40.2636L35.654 40.2591L35.6659 40.2548L35.6779 40.25L35.6796 40.2495L35.69 40.2457L35.7018 40.2407L35.7138 40.2364L35.7257 40.2316L35.7377 40.2272L35.7496 40.2223L35.7616 40.218L35.7735 40.2132L35.7836 40.2091L35.7855 40.2087L35.7974 40.2039L35.8094 40.1991L35.8213 40.1948L35.8333 40.19L35.8453 40.185L35.8572 40.1807L35.8692 40.1759L35.8811 40.1711L35.8878 40.1684L35.8926 40.1666L35.9045 40.1618L35.9165 40.157L35.9284 40.1522L35.9404 40.1474L35.9523 40.1425L35.9643 40.1381L35.9758 40.1333L35.9877 40.1285L35.9913 40.1271L35.9997 40.1237L36.0116 40.1188L36.0236 40.114L36.0352 40.1092L36.047 40.1044L36.059 40.0996L36.0709 40.0946L36.0825 40.0898L36.0943 40.085C38.3776 39.1477 40.4329 37.7744 42.1533 36.07C43.8709 34.3674 45.2566 32.3305 46.2025 30.0677C47.1133 27.8876 47.6165 25.4995 47.6165 22.9989C47.6165 20.4988 47.1129 18.1098 46.2025 15.9302C45.0713 13.2227 43.3619 10.9156 41.1708 9.01954L41.1336 8.98751L41.0376 8.90581L41.0008 8.87517L40.9407 8.82519L40.8432 8.74488L40.7675 8.68299L40.7455 8.66504L40.6551 8.59278L40.6471 8.58613C40.5485 8.50722 40.4488 8.43 40.3485 8.35326L40.3029 8.31813L40.2481 8.27651L40.147 8.201L40.1241 8.18398L40.0452 8.12595L39.9439 8.05184L39.943 8.05153L39.8404 7.97772L39.762 7.92202L39.7372 7.905L39.6332 7.83258L39.5784 7.79436L39.5288 7.76063L39.4243 7.68961L39.3929 7.66857L39.3191 7.61936L39.2132 7.54973L39.2062 7.54525L39.1066 7.48088L39.0176 7.42378L38.9999 7.41279C36.3484 5.85881 37.142 6.21067 36.537 5.98074C37.0278 5.94562 40.267 5.83823 44.4644 8.53399C47.1129 10.2345 49.7705 13.5552 50.9362 16.3461Z" fill="#9C394E"/>
<path d="M33.0085 0.0603638C32.3854 0.259041 31.7734 0.482319 31.1727 0.728809C28.1942 1.95166 25.5158 3.74161 23.2767 5.96063C21.0378 8.17949 19.2316 10.8341 17.9977 13.7859C17.2816 15.4996 16.7593 17.3127 16.457 19.1966C16.1977 20.4247 16.0609 21.6966 16.0609 22.9989C16.0609 24.2981 16.1969 25.567 16.4548 26.7917C17.2745 31.9269 19.7303 36.5226 23.2767 40.0372C25.5158 42.2563 28.1942 44.0462 31.1732 45.2691C31.7734 45.5155 32.3854 45.7388 33.0085 45.9375C30.4837 45.7558 28.0726 45.1751 25.8393 44.2585C23.0036 43.0944 20.4478 41.3846 18.3058 39.2617C14.1062 35.0999 11.5078 29.3491 11.5078 22.9989C11.5078 19.8804 12.1327 16.9087 13.2638 14.2017C14.4386 11.3919 16.1637 8.85892 18.3058 6.73599C20.4478 4.61322 23.0036 2.90342 25.8388 1.73937C28.0721 0.822735 30.4833 0.24202 33.0085 0.0603638ZM54.1598 10.4401C53.997 10.2656 53.8301 10.0937 53.6605 9.92565C50.2859 6.58126 45.6212 4.5114 40.4691 4.5114C39.4919 4.5114 38.5315 4.58645 37.5937 4.73035C36.6559 4.58598 35.6946 4.5114 34.7157 4.5114C32.1929 4.5114 29.7822 5.00964 27.5827 5.91282C25.2999 6.85019 23.2453 8.22251 21.5241 9.92782C21.3502 10.1002 21.1799 10.2761 21.0129 10.455C21.8968 9.11284 22.9192 7.866 24.0592 6.73599C26.2014 4.61322 28.7572 2.90342 31.5924 1.73937C33.4782 0.96524 35.491 0.430641 37.5924 0.17363C39.6933 0.430641 41.7062 0.96524 43.5919 1.73937C46.4271 2.90342 48.9835 4.61322 51.1256 6.73599C52.2608 7.86105 53.2782 9.10232 54.1598 10.4401ZM37.5924 45.8242C35.4915 45.5672 33.4787 45.0326 31.5927 44.2585C28.7572 43.0944 26.2014 41.3846 24.0592 39.2617C22.924 38.1368 21.9062 36.8951 21.0245 35.5573C21.1878 35.7323 21.3543 35.9037 21.5241 36.0722C24.8984 39.4161 29.5637 41.4865 34.7157 41.4865C35.692 41.4865 36.6519 41.4114 37.5884 41.2675C38.5275 41.4119 39.4893 41.4865 40.4691 41.4865C42.9922 41.4865 45.4021 40.9878 47.6017 40.085C49.885 39.1477 51.9403 37.7744 53.6605 36.07C53.8346 35.8977 54.0054 35.7213 54.1722 35.5424C53.2885 36.885 52.2661 38.1315 51.1256 39.2617C48.9835 41.3846 46.4276 43.094 43.5915 44.2585C41.7066 45.0326 39.6933 45.5672 37.5924 45.8242ZM41.0901 5.61898C45.6894 5.77773 49.8398 7.69007 52.8782 10.7012C54.498 12.3064 55.8027 14.2218 56.6901 16.3461C57.0942 17.3137 57.4132 18.3259 57.6367 19.3747C57.8257 20.555 57.9236 21.7659 57.9236 22.9989C57.9236 24.2274 57.8266 25.4328 57.6399 26.6088C57.4158 27.6622 57.0964 28.6799 56.6901 29.6517C55.8014 31.7778 54.4976 33.6932 52.8791 35.2976C51.26 36.9016 49.3273 38.1938 47.1822 39.0745C45.2959 39.8486 43.2397 40.3062 41.083 40.3794C41.3405 40.2868 41.5959 40.1886 41.8482 40.085C44.1315 39.1477 46.1868 37.7744 47.9071 36.07C49.6247 34.3674 51.0105 32.3305 51.9562 30.0677C52.8671 27.8876 53.3703 25.4995 53.3703 22.9989C53.3703 20.4988 52.8666 18.1098 51.9562 15.9302C51.0096 13.6645 49.6239 11.6271 47.9071 9.92565C45.9992 8.03482 43.6783 6.55093 41.0901 5.61898Z" fill="#9C394E"/>
<path d="M49.344 1.74043C46.6124 0.619396 43.614 0 40.4676 0C37.321 0 34.3225 0.619396 31.5909 1.74043C28.7557 2.90449 26.1999 4.61428 24.0577 6.73706C21.9156 8.85999 20.1905 11.393 19.0159 14.2028C17.8846 16.9098 17.2598 19.8814 17.2598 22.9999C17.2598 29.3501 19.8581 35.1009 24.0577 39.2628C26.1999 41.3857 28.7557 43.0955 31.5912 44.2596C34.3229 45.3806 37.3214 46 40.4676 46C43.6143 46 46.6128 45.3806 49.3436 44.2596C52.1795 43.095 54.7354 41.3857 56.8775 39.2628C59.0197 37.14 60.7443 34.607 61.9193 31.7963C63.0507 29.0902 63.6755 26.1186 63.6755 22.9999C63.6755 16.6497 61.0767 10.8987 56.8775 6.73706C54.7354 4.61428 52.1791 2.90449 49.344 1.74043ZM40.4676 4.51247C45.6197 4.51247 50.2844 6.58233 53.659 9.92672C55.3759 11.6282 56.7615 13.6655 57.7083 15.9313C58.6187 18.1108 59.1222 20.4999 59.1222 22.9999C59.1222 25.5006 58.619 27.8887 57.7083 30.0687C56.7625 32.3315 55.3768 34.3684 53.659 36.0711C51.9388 37.7755 49.8835 39.1487 47.6002 40.0861C45.4006 40.9888 42.9907 41.4875 40.4676 41.4875C35.3156 41.4875 30.6504 39.4172 27.2762 36.0733C25.5594 34.3718 24.1737 32.3345 23.227 30.069C22.3162 27.8892 21.813 25.501 21.813 22.9999C21.813 20.4999 22.3158 18.1108 23.227 15.931C24.1723 13.6685 25.5577 11.632 27.2762 9.92889C28.9974 8.22358 31.0518 6.85125 33.3346 5.91388C35.5342 5.01071 37.945 4.51247 40.4676 4.51247Z" fill="#9C394E"/>
</svg>
