<svg width="16" height="16" viewBox="0 0 16 16" fill="none" xmlns="http://www.w3.org/2000/svg">
<path d="M0 7.74003V7.7174C0.200837 5.09231 1.13808 3.1235 2.76709 1.87884C4.37378 0.611559 6.11437 0.000547596 8.01116 0.000547596C9.99721 -0.0220825 11.8494 0.656819 13.5007 2.01462C15.1743 3.3498 16 5.34124 16 7.92107V8.07948C16 10.6819 15.1743 12.6281 13.5007 13.9633C11.8271 15.3211 9.9749 16 7.98884 16H7.89958C5.95816 15.9774 4.17294 15.2985 2.52162 13.9407C0.870293 12.6055 0.0223152 10.5462 0 7.74003ZM7.52022 4.18711V0.611559H6.98466C6.87308 0.74734 6.78382 0.90575 6.69456 1.04153C6.6053 1.17731 6.51604 1.31309 6.42678 1.4715C6.33752 1.60728 6.22594 1.78832 6.159 1.9241C6.06974 2.05988 6.00279 2.19566 5.93584 2.35407C5.80195 2.58037 5.69038 2.80668 5.60112 3.01035C5.48954 3.21402 5.40028 3.41769 5.33333 3.59873C5.46722 3.68925 5.62343 3.8024 5.80195 3.87029C6.00279 3.93818 6.20363 4.00607 6.40446 4.05133C6.62761 4.09659 6.82845 4.11922 7.00697 4.14185C7.20781 4.16448 7.38633 4.18711 7.52022 4.18711ZM8.45746 0.611559V4.16448C8.56904 4.16448 8.70293 4.18711 8.83682 4.16448C8.97071 4.16448 9.12692 4.14185 9.26081 4.11922C9.50628 4.07396 9.79637 4.00607 10.0195 3.93818C10.265 3.84766 10.4881 3.73451 10.6444 3.59873C10.3766 2.94246 10.0865 2.42196 9.79637 1.9241C9.50628 1.42624 9.17155 0.99627 8.8145 0.634189V0.611559H8.45746ZM6.04742 0.81523V0.7926C5.89121 0.86049 5.73501 0.97364 5.55649 1.04153C5.40028 1.10942 5.19944 1.19994 5.04324 1.29046C4.73082 1.44887 4.41841 1.62991 4.106 1.83358C3.8159 2.03725 3.5258 2.26355 3.28033 2.48985C3.3696 2.58037 3.48117 2.67089 3.57043 2.73879C3.65969 2.80668 3.77127 2.8972 3.88285 2.98772C3.97211 3.03298 4.08368 3.10087 4.19526 3.19139C4.30683 3.25928 4.44073 3.3498 4.57462 3.44032C4.75314 3.03298 4.93166 2.603 5.15481 2.21829C5.37796 1.81095 5.62343 1.42624 5.8689 1.08679C5.89121 1.04153 5.91353 0.99627 5.95816 0.95101C5.98047 0.92838 6.00279 0.86049 6.04742 0.81523ZM12.8759 2.48985V2.46722C12.318 2.03725 11.8271 1.67517 11.3361 1.44887C10.8452 1.22257 10.3543 0.99627 9.90795 0.81523C10.265 1.17731 10.5774 1.62991 10.7782 2.05988C11.0014 2.51248 11.2245 2.98772 11.4031 3.44032C11.4923 3.39506 11.6039 3.3498 11.7378 3.25928C11.8494 3.19139 12.0056 3.1235 12.1395 3.05561C12.2734 2.96509 12.3849 2.87457 12.5188 2.78404C12.6527 2.67089 12.7866 2.58037 12.8759 2.48985ZM12.4965 7.53636H15.0628C15.0628 6.69905 14.8842 5.90699 14.5495 5.09231C14.2371 4.30026 13.7908 3.64399 13.2329 3.07824V3.05561C13.1213 3.23665 12.9651 3.39506 12.8089 3.50821C12.6304 3.62136 12.4742 3.71188 12.2957 3.8024C12.1841 3.87029 12.0725 3.96081 11.9609 4.00607C11.8494 4.07396 11.6932 4.11922 11.5816 4.18711C11.6709 4.36815 11.7601 4.57182 11.8494 4.75286C11.9163 4.95653 12.0279 5.18283 12.0725 5.3865C12.2064 5.74858 12.2957 6.13329 12.3849 6.518C12.4519 6.85746 12.4965 7.21954 12.4965 7.53636ZM4.41841 4.18711V4.16448C4.23989 4.07396 4.03905 4.00607 3.88285 3.91555C3.72664 3.8024 3.57043 3.68925 3.43654 3.59873C3.30265 3.53084 3.16876 3.44032 3.05718 3.3498C2.94561 3.25928 2.85635 3.16876 2.76709 3.07824C2.18689 3.64399 1.7629 4.27763 1.49512 5.02442C1.20502 5.77121 1.00418 6.60853 0.914923 7.51373H3.65969C3.65969 6.88009 3.74895 6.26907 3.90516 5.65806C4.03905 5.02442 4.23989 4.54919 4.41841 4.18711ZM7.52022 7.51373V4.91127C7.3417 4.9339 7.11855 4.9339 6.91771 4.91127C6.69456 4.88864 6.47141 4.82075 6.27057 4.75286C6.09205 4.7076 5.8689 4.66234 5.69038 4.59445C5.48954 4.54919 5.2887 4.45867 5.1325 4.36815C4.99861 4.59445 4.88703 4.86601 4.79777 5.1602C4.68619 5.43176 4.61925 5.72595 4.5523 5.99751C4.50767 6.26907 4.48536 6.56326 4.46304 6.8122C4.44073 7.06113 4.41841 7.31006 4.41841 7.51373H7.52022ZM8.45746 4.95653V7.51373H11.7601C11.7601 7.37795 11.7601 7.21954 11.7378 7.0385C11.6932 6.88009 11.6709 6.67642 11.6485 6.49537C11.5816 6.22381 11.5146 5.92962 11.4254 5.65806C11.3361 5.40913 11.2469 5.1602 11.1353 4.95653C11.0907 4.84338 11.046 4.7076 11.0014 4.61708C10.9344 4.50393 10.8675 4.43604 10.8229 4.36815C10.5774 4.54919 10.2427 4.66234 9.841 4.75286C9.46165 4.84338 9.01534 4.9339 8.61367 4.95653H8.45746ZM3.65969 8.26052H0.914923C0.914923 8.64523 0.981869 9.0752 1.09344 9.59569C1.20502 10.1388 1.42817 10.6367 1.67364 11.1798C1.78522 11.4514 1.91911 11.7229 2.053 11.9945C2.2092 12.2434 2.38773 12.515 2.56625 12.7639C2.70014 12.6734 2.83403 12.6055 2.94561 12.5376C3.0795 12.4697 3.2357 12.3792 3.3696 12.3113C3.5258 12.2434 3.68201 12.1755 3.86053 12.085C4.01674 12.0171 4.21757 11.9266 4.41841 11.8361C4.23989 11.2703 4.03905 10.7272 3.90516 10.1162C3.74895 9.5278 3.65969 8.93942 3.65969 8.28315V8.26052ZM7.52022 10.9082V8.26052H4.41841C4.41841 8.44156 4.44073 8.71312 4.48536 8.98468C4.50767 9.25624 4.57462 9.55043 4.61925 9.84462C4.70851 10.1614 4.77545 10.4783 4.86471 10.7498C4.95397 11.0214 5.04324 11.2477 5.1325 11.4514C5.53417 11.2929 5.93584 11.1798 6.20363 11.1119C6.49372 11.0214 6.76151 10.9535 7.02929 10.9309H7.27476C7.36402 10.9082 7.45328 10.9082 7.52022 10.9082ZM8.45746 8.26052V10.8856C8.61367 10.9082 8.79219 10.9309 8.97071 10.9535C9.17155 10.9761 9.41702 11.0214 9.61785 11.0666L9.95258 11.1345C10.0642 11.1798 10.198 11.2024 10.3096 11.2251C10.4435 11.2703 10.5774 11.2929 10.7113 11.3382C10.8229 11.3835 10.9344 11.4061 11.0237 11.4514C11.3138 10.7046 11.4923 10.0936 11.6039 9.57306C11.7155 9.0752 11.7601 8.64523 11.7601 8.28315V8.26052H8.45746ZM15.0628 8.28315V8.26052H12.4965V8.3963C12.4742 8.82627 12.4073 9.32413 12.318 9.84462C12.2287 10.3425 12.0279 10.9309 11.7601 11.655C12.1172 11.8361 12.4519 12.0171 12.7197 12.1981C12.9874 12.3792 13.2329 12.5829 13.4114 12.7639C13.7908 12.3792 14.1255 11.8587 14.4156 11.1798C14.7057 10.5235 14.9066 9.84462 15.0181 9.12046C15.0404 8.98468 15.0404 8.8489 15.0628 8.71312V8.28315ZM7.52022 15.1627V11.6324C6.96234 11.7229 6.49372 11.8361 6.13668 11.9266C5.77964 12.0171 5.51186 12.1076 5.33333 12.1981C5.46722 12.5376 5.60112 12.8318 5.73501 13.1034C5.8689 13.3523 6.0251 13.6238 6.159 13.8501C6.20363 13.9407 6.29289 14.0312 6.35983 14.1443C6.42678 14.2349 6.47141 14.348 6.53835 14.4385C6.6053 14.5517 6.67225 14.6875 6.73919 14.8232C6.82845 14.9364 6.8954 15.0722 6.98466 15.1627H7.52022ZM8.45746 15.1627H8.97071C9.17155 15.0043 9.37239 14.778 9.52859 14.529C9.70711 14.2801 9.90795 13.9859 10.0418 13.737C10.198 13.4428 10.3543 13.1712 10.4881 12.8997C10.622 12.6281 10.7336 12.3792 10.8229 12.1981C10.5774 12.1076 10.2427 12.0171 9.90795 11.9266C9.57322 11.8361 9.1046 11.7455 8.45746 11.655V15.1627ZM12.8759 13.307V13.2844C12.8312 13.2165 12.742 13.126 12.675 13.0581C12.6081 12.9902 12.4965 12.8997 12.3849 12.8318C12.2957 12.7639 12.1841 12.696 12.0502 12.6281C11.9163 12.5602 11.7378 12.4697 11.5816 12.3792C11.4923 12.5602 11.3361 12.8771 11.113 13.307C10.9121 13.737 10.5551 14.2575 10.1088 14.8232C10.6667 14.7327 11.1576 14.529 11.6039 14.2575C12.0948 14.0086 12.5188 13.6691 12.8759 13.307ZM4.57462 12.5829V12.5602C4.41841 12.6508 4.17294 12.7639 3.92748 12.8771C3.65969 12.9902 3.3696 13.126 3.10181 13.307C3.25802 13.4428 3.41423 13.5786 3.54812 13.6691C3.68201 13.7823 3.83821 13.8728 3.97211 13.9633C4.21757 14.1217 4.50767 14.2801 4.79777 14.4159C5.08787 14.5517 5.44491 14.6875 5.89121 14.8232C5.73501 14.6422 5.62343 14.4159 5.51186 14.2349C5.40028 14.0538 5.26639 13.8728 5.15481 13.6917C5.04324 13.5107 4.95397 13.307 4.86471 13.126C4.75314 12.9449 4.66388 12.7639 4.57462 12.5829Z" fill="#103A64"/>
</svg>
