<svg width="18" height="20" viewBox="0 0 18 20" fill="none" xmlns="http://www.w3.org/2000/svg">
<path d="M5.13123 4.46102C5.43636 2.0765 7.43992 1.01287 8.89354 1.00018C9.91143 0.991524 10.8087 1.30127 11.5694 1.96633C12.3302 2.63139 12.7367 3.46602 12.8532 4.46217H14.5563C15.279 4.46217 15.6779 4.80133 15.7517 5.50965C15.9274 7.16566 16.0855 8.82283 16.2536 10.4794C16.4363 12.2791 16.6206 14.0787 16.8065 15.8783C16.8721 16.5238 16.947 17.1686 16.9956 17.8152C17.0495 18.5368 16.6009 19 15.8712 19H2.11857C1.40171 19 0.942552 18.5339 1.0058 17.8285C1.09717 16.7297 1.2184 15.6338 1.32968 14.5361C1.46828 13.1668 1.60767 11.7972 1.74784 10.4275C1.90402 8.90012 2.0602 7.37273 2.21637 5.84535C2.23336 5.68096 2.24683 5.51542 2.27143 5.3516C2.303 5.10606 2.42461 4.88035 2.61338 4.71697C2.80214 4.55358 3.04504 4.46378 3.29634 4.46448C3.90367 4.45755 4.5116 4.46102 5.13123 4.46102ZM8.98373 18.3044H15.8594C16.1903 18.3044 16.3139 18.1775 16.2946 17.8573C16.2852 17.6918 16.2647 17.5268 16.2483 17.3619C16.1113 16.0068 15.9746 14.6516 15.8384 13.2965C15.6822 11.7622 15.526 10.2279 15.3698 8.69362C15.2626 7.65018 15.159 6.6027 15.0536 5.55695C15.0219 5.25355 14.9054 5.15318 14.5962 5.15318C10.869 5.15318 7.14201 5.15318 3.41523 5.15318C3.09956 5.15318 2.98125 5.24778 2.9508 5.54657C2.81258 6.88706 2.6769 8.22795 2.54376 9.56921C2.40437 10.9462 2.2644 12.3229 2.12384 13.6991C1.98562 15.0616 1.84389 16.4234 1.71387 17.7864C1.67405 18.1948 1.78767 18.3055 2.20232 18.3055L8.98373 18.3044ZM12.1141 4.45352C11.99 3.02246 10.664 1.59198 8.81506 1.70157C6.94855 1.81174 5.92773 3.36854 5.89611 4.45352H12.1141Z" fill="#103A64" stroke="#103A64" stroke-width="0.4"/>
<path d="M12.1287 9.24817C11.5741 8.92459 11.3638 8.50352 11.4968 8.00689C11.5572 7.78725 11.6892 7.59325 11.8725 7.45472C12.0558 7.31618 12.2802 7.24079 12.5113 7.24014C12.7423 7.23948 12.9672 7.3136 13.1513 7.45109C13.3354 7.58858 13.4685 7.78183 13.5302 8.00112C13.5931 8.2216 13.5781 8.45655 13.4878 8.66756C13.3975 8.87858 13.2371 9.05317 13.033 9.16281C12.9712 9.18909 12.9183 9.23232 12.8808 9.28733C12.8432 9.34234 12.8224 9.40683 12.821 9.47313C12.6388 11.1239 11.211 12.5302 9.52486 12.7321C7.42701 12.9813 5.61203 11.6869 5.19972 9.64732C5.18566 9.57695 5.19445 9.49793 5.16517 9.43506C5.12476 9.34681 5.07849 9.23721 5.00118 9.19338C4.56135 8.94074 4.34465 8.4891 4.46061 8.02419C4.50029 7.85585 4.58201 7.69992 4.69836 7.57055C4.81471 7.44117 4.96201 7.34245 5.1269 7.28334C5.29179 7.22422 5.46905 7.20657 5.64262 7.232C5.81619 7.25743 5.98056 7.32513 6.12084 7.42896C6.26112 7.53279 6.37287 7.66946 6.44594 7.82658C6.51902 7.98371 6.55111 8.15631 6.53932 8.32874C6.52752 8.50117 6.47221 8.66798 6.3784 8.81403C6.28458 8.96008 6.15523 9.08076 6.00208 9.16511C5.87616 9.23548 5.86855 9.3122 5.88495 9.42583C6.04484 10.7046 7.16346 11.8363 8.46187 12.033C10.2118 12.2977 11.7615 11.2255 12.0965 9.5135C12.1129 9.42814 12.1176 9.34219 12.1287 9.24817ZM5.47967 7.92498C5.4097 7.92502 5.34134 7.94562 5.28333 7.98416C5.22533 8.02269 5.18033 8.0774 5.15409 8.14128C5.12785 8.20516 5.12157 8.2753 5.13606 8.34272C5.15054 8.41013 5.18513 8.47175 5.2354 8.51969C5.28566 8.56762 5.34931 8.59969 5.41819 8.61178C5.48707 8.62387 5.55805 8.61543 5.62203 8.58755C5.68602 8.55967 5.74009 8.51361 5.77733 8.45527C5.81457 8.39694 5.83328 8.32898 5.83107 8.26011C5.82818 8.17023 5.78988 8.08499 5.72429 8.02244C5.6587 7.95989 5.57097 7.92494 5.47967 7.92498ZM12.8637 8.27626C12.8655 8.20746 12.8464 8.13972 12.8088 8.08168C12.7713 8.02364 12.717 7.97794 12.653 7.95041C12.589 7.92289 12.5181 7.91479 12.4493 7.92715C12.3806 7.93951 12.3172 7.97177 12.2671 8.01981C12.2171 8.06785 12.1828 8.12948 12.1685 8.19684C12.1542 8.2642 12.1606 8.33422 12.1869 8.39797C12.2132 8.46171 12.2583 8.51628 12.3162 8.55471C12.3742 8.59313 12.4425 8.61367 12.5123 8.61369C12.604 8.61372 12.6921 8.57844 12.7578 8.5154C12.8234 8.45236 12.8614 8.36654 12.8637 8.27626Z" fill="#103A64" stroke="#103A64" stroke-width="0.4"/>
</svg>
