<svg width="28" height="28" viewBox="0 0 28 28" fill="none" xmlns="http://www.w3.org/2000/svg">
<path d="M23.2508 19.1339C22.5233 19.134 21.8056 19.2904 21.1532 19.5908C20.5008 19.8912 19.9312 20.3277 19.4884 20.8665L9.24494 15.4392C9.58914 14.5069 9.58914 13.4938 9.24494 12.5616L19.4884 7.13419C20.2034 8.0002 21.2363 8.58877 22.3882 8.78662C23.5401 8.98448 24.7297 8.77765 25.7281 8.20593C26.7264 7.63421 27.463 6.738 27.7962 5.68976C28.1293 4.64151 28.0353 3.51529 27.5324 2.52781C27.0295 1.54033 26.1532 0.761364 25.0721 0.340801C23.9909 -0.0797615 22.7814 -0.112204 21.6761 0.249717C20.5709 0.611638 19.6481 1.34235 19.0853 2.30124C18.5225 3.26014 18.3595 4.37947 18.6276 5.44384L8.20955 10.9637C7.55764 10.3163 6.71239 9.86671 5.78343 9.67321C4.85446 9.47971 3.88465 9.55126 2.99977 9.87857C2.11489 10.2059 1.35578 10.7738 0.820887 11.5088C0.285993 12.2438 0 13.1118 0 14.0004C0 14.8889 0.285993 15.757 0.820887 16.4919C1.35578 17.2269 2.11489 17.7948 2.99977 18.1222C3.88465 18.4495 4.85446 18.521 5.78343 18.3275C6.71239 18.134 7.55764 17.6844 8.20955 17.037L18.6276 22.5569C18.403 23.453 18.4827 24.392 18.8556 25.2439C19.2285 26.0957 19.8761 26.8181 20.7086 27.3109C21.5411 27.8037 22.5173 28.0423 23.5016 27.9938C24.486 27.9453 25.4298 27.6121 26.2022 27.0402C26.9745 26.4684 27.5371 25.6864 27.8118 24.8026C28.0866 23.9188 28.0599 22.9771 27.7355 22.1082C27.4111 21.2392 26.8051 20.486 26.0015 19.953C25.1979 19.4201 24.2365 19.1338 23.2508 19.1339ZM23.2508 1.86643C23.7946 1.86643 24.3262 2.01697 24.7783 2.29901C25.2305 2.58106 25.5829 2.98193 25.791 3.45095C25.9991 3.91997 26.0536 4.43607 25.9475 4.93398C25.8414 5.43189 25.5795 5.88925 25.195 6.24822C24.8105 6.60719 24.3205 6.85166 23.7872 6.9507C23.2538 7.04974 22.701 6.99891 22.1986 6.80463C21.6962 6.61036 21.2667 6.28136 20.9646 5.85926C20.6625 5.43715 20.5012 4.94089 20.5012 4.43322C20.5021 3.7527 20.792 3.10027 21.3075 2.61906C21.8229 2.13786 22.5218 1.86719 23.2508 1.86643ZM4.75388 16.5672C4.21008 16.5672 3.67848 16.4166 3.22632 16.1346C2.77416 15.8525 2.42175 15.4517 2.21364 14.9826C2.00554 14.5136 1.95109 13.9975 2.05718 13.4996C2.16327 13.0017 2.42514 12.5443 2.80967 12.1854C3.1942 11.8264 3.68412 11.5819 4.21748 11.4829C4.75083 11.3838 5.30367 11.4347 5.80609 11.629C6.3085 11.8232 6.73792 12.1522 7.04004 12.5743C7.34216 12.9964 7.50342 13.4927 7.50342 14.0004C7.50261 14.6809 7.21267 15.3333 6.69721 15.8145C6.18174 16.2957 5.48286 16.5664 4.75388 16.5672ZM23.2508 26.1343C22.707 26.1343 22.1754 25.9838 21.7232 25.7017C21.2711 25.4197 20.9186 25.0188 20.7105 24.5498C20.5024 24.0807 20.448 23.5646 20.5541 23.0667C20.6602 22.5688 20.922 22.1115 21.3066 21.7525C21.6911 21.3935 22.181 21.1491 22.7144 21.05C23.2477 20.951 23.8006 21.0018 24.303 21.1961C24.8054 21.3904 25.2348 21.7194 25.5369 22.1415C25.8391 22.5636 26.0003 23.0598 26.0003 23.5675C25.9995 24.248 25.7096 24.9005 25.1941 25.3817C24.6786 25.8629 23.9798 26.1335 23.2508 26.1343Z" fill="#222933" fill-opacity="0.2"/>
</svg>
