<svg width="20" height="16" viewBox="0 0 20 16" fill="none" xmlns="http://www.w3.org/2000/svg">
<path d="M18.8736 7.31927L18.8734 7.31914L9.63407 0.871667L9.63342 0.871216C9.51742 0.790816 9.3764 0.75 9.23422 0.75H7.06989C6.89584 0.75 6.73273 0.839935 6.66005 0.997575C6.58104 1.16895 6.6359 1.36699 6.80016 1.48065C6.80039 1.48081 6.80063 1.48097 6.80086 1.48113L14.7121 7.00281H1.19565C1.00364 7.00281 0.75 7.13737 0.75 7.41011V8.58989C0.75 8.86263 1.00364 8.99719 1.19565 8.99719H14.7097L6.79719 14.5197L6.79643 14.5203C6.63463 14.6341 6.57792 14.8311 6.65778 15.0035C6.73101 15.1617 6.89472 15.25 7.06745 15.25H9.30514C9.39536 15.25 9.49475 15.2245 9.57787 15.1639L18.8734 8.6809L18.8736 8.68073C18.9858 8.60225 19.0803 8.50218 19.1469 8.38471C19.2137 8.26683 19.25 8.13543 19.25 8C19.25 7.86457 19.2137 7.73317 19.1469 7.61529C19.0803 7.49782 18.9858 7.39775 18.8736 7.31927Z" fill="#9C394E" stroke="#9C394E" stroke-width="0.5"/>
</svg>
