<svg width="20" height="20" viewBox="0 0 20 20" fill="none" xmlns="http://www.w3.org/2000/svg">
<g clip-path="url(#clip0_529_454)">
<path d="M20 19.954L14.4133 14.3673C15.7558 12.7556 16.4253 10.6884 16.2825 8.59562C16.1396 6.50288 15.1954 4.54579 13.6464 3.13146C12.0973 1.71713 10.0626 0.954456 7.96554 1.00211C5.86847 1.04975 3.87051 1.90405 2.38728 3.38728C0.904053 4.87051 0.0497547 6.86847 0.00210549 8.96554C-0.0455437 11.0626 0.717125 13.0973 2.13146 14.6464C3.54579 16.1954 5.50288 17.1396 7.59562 17.2825C9.68835 17.4253 11.7556 16.7558 13.3673 15.4133L18.954 21L20 19.954ZM1.50598 9.16382C1.50598 7.84703 1.89645 6.5598 2.62803 5.46492C3.3596 4.37004 4.39941 3.51669 5.61598 3.01277C6.83254 2.50886 8.17121 2.37701 9.46271 2.6339C10.7542 2.8908 11.9405 3.5249 12.8716 4.45601C13.8028 5.38713 14.4369 6.57345 14.6937 7.86494C14.9506 9.15644 14.8188 10.4951 14.3149 11.7117C13.811 12.9282 12.9576 13.9681 11.8627 14.6996C10.7678 15.4312 9.48062 15.8217 8.16382 15.8217C6.39865 15.8197 4.70634 15.1176 3.45818 13.8695C2.21001 12.6213 1.50793 10.929 1.50598 9.16382Z" fill="#103A64"/>
</g>
<defs>
<clipPath id="clip0_529_454">
<rect width="20" height="20" fill="white"/>
</clipPath>
</defs>
</svg>
