<svg width="21" height="16" viewBox="0 0 21 16" fill="none" xmlns="http://www.w3.org/2000/svg">
<path fill-rule="evenodd" clip-rule="evenodd" d="M19.2496 0C20.2156 0 21 0.795733 21 1.77813V14.2219C21 15.2032 20.2167 16 19.2496 16H1.75035C0.78435 16 0 15.2043 0 14.2219V1.77813C0 0.7968 0.7833 0 1.75035 0H19.2496ZM7.5264 9.41653L2.3709 14.592H18.4621L13.3623 9.46987L10.5 11.4827L7.5264 9.41653ZM19.572 5.11147L14.5362 8.64853L19.572 13.7003V5.11147ZM1.42905 5.17653V13.5349L6.34935 8.5952L1.42905 5.17653ZM19.2328 1.40907H1.7829C1.68708 1.4045 1.59317 1.43732 1.5204 1.5008C1.48806 1.53022 1.4631 1.56705 1.44758 1.60823C1.43205 1.64941 1.42642 1.69376 1.43115 1.7376V3.4656L10.5 9.7664L19.5762 3.40373V1.81227C19.5772 1.66933 19.5447 1.56587 19.4796 1.5008C19.4473 1.46885 19.4087 1.44417 19.3664 1.42836C19.324 1.41256 19.2789 1.40598 19.2339 1.40907H19.2328Z" fill="#9C394E"/>
</svg>
