<svg width="14" height="18" viewBox="0 0 14 18" fill="none" xmlns="http://www.w3.org/2000/svg">
<path d="M7.47584 17.7303L13.9233 8.491C13.9725 8.42008 14 8.3296 14 8.23422L14 6.06989C14 5.88892 13.8191 5.80577 13.7247 5.94272L7.74719 14.5071L7.74719 0.195645C7.74719 0.0880401 7.6764 -2.76413e-07 7.58989 -2.80195e-07L6.41011 -3.31765e-07C6.3236 -3.35546e-07 6.25281 0.08804 6.25281 0.195645L6.25281 14.5046L0.27528 5.94028C0.178932 5.80333 -1.21098e-06 5.88648 -1.21889e-06 6.06745L-1.3167e-06 8.30514C-1.31873e-06 8.3516 0.0137631 8.39807 0.0393244 8.43231L6.52416 17.7303C6.58335 17.815 6.65646 17.8829 6.73855 17.9294C6.82063 17.9759 6.90979 18 7 18C7.09021 18 7.17936 17.9759 7.26145 17.9294C7.34354 17.8829 7.41665 17.815 7.47584 17.7303Z" fill="#103A64"/>
</svg>
